SplineFontDB: 3.0
FontName: LoyalSansObliquev1.2
FullName: Loyal Sans Oblique
FamilyName: Loyal Sans
Weight: Regular
Copyright: Copyright (c) 2024, Emmet Blanchette
UComments: "2023-12-11: Created with FontForge (http://fontforge.org)"
Version: 001.200
ItalicAngle: 0
UnderlinePosition: -100
UnderlineWidth: 50
Ascent: 800
Descent: 200
InvalidEm: 0
LayerCount: 2
Layer: 0 0 "Back" 1
Layer: 1 0 "Fore" 0
XUID: [1021 65 -877688889 9584006]
FSType: 0
OS2Version: 0
OS2_WeightWidthSlopeOnly: 0
OS2_UseTypoMetrics: 1
CreationTime: 1702354516
ModificationTime: 1714174468
PfmFamily: 33
TTFWeight: 400
TTFWidth: 5
LineGap: 90
VLineGap: 0
OS2TypoAscent: 0
OS2TypoAOffset: 1
OS2TypoDescent: 0
OS2TypoDOffset: 1
OS2TypoLinegap: 90
OS2WinAscent: 0
OS2WinAOffset: 1
OS2WinDescent: 0
OS2WinDOffset: 1
HheadAscent: 0
HheadAOffset: 1
HheadDescent: 0
HheadDOffset: 1
OS2Vendor: 'PfEd'
Lookup: 4 0 1 "'liga' Standard Ligatures in Latin lookup 0" { "'liga' Standard Ligatures in Latin lookup 0-1"  } ['liga' ('DFLT' <'dflt' > 'latn' <'dflt' > ) ]
Lookup: 258 0 0 "'kern' Horizontal Kerning in Latin lookup 0" { "'kern' Horizontal Kerning in Latin lookup 0-1" [75,15,1] } ['kern' ('DFLT' <'dflt' > 'latn' <'dflt' > ) ]
MarkAttachClasses: 1
DEI: 91125

StartChar: A
Encoding: 19 65 0
Width: 471
VWidth: 0
Flags: W
HStem: 0 21G<0 28.4171 357.322 430.24> 200.36 19.8398<133.978 320.888>
LayerCount: 2
Fore
SplineSet
133.977539062 220.200195312 m 1
 320.887695312 220.200195312 l 1
 274.747070312 481.870117188 l 2
 274.079101562 485.91015625 268.3828125 485.8203125 266.380859375 481.780273438 c 2
 133.977539062 220.200195312 l 1
324.4296875 616.75 m 2
 430.240234375 0 l 1
 360.959960938 0 l 1
 324.51953125 200.360351562 l 1
 123.979492188 200.360351562 l 1
 17.8203125 0 l 1
 0 0 l 1
 316.063476562 616.66015625 l 2
 318.051757812 620.620117188 323.748046875 620.709960938 324.4296875 616.75 c 2
EndSplineSet
EndChar

StartChar: B
Encoding: 20 66 1
Width: 454
VWidth: 0
Flags: W
HStem: 0.0400391 19.8604<67.959 182.527> 378.78 19.8701<134.743 236.376> 599.78 19.8994<170.208 307.956>
LayerCount: 2
Fore
SplineSet
170.217773438 599.780273438 m 1
 170.208007812 599.780273438 l 1
 134.743164062 398.650390625 l 1
 166.072265625 398.650390625 l 2
 268.0625 398.650390625 369.576171875 432.129882812 382.095703125 503.129882812 c 0
 395.905273438 581.450195312 288.377929688 599.780273438 236.827148438 599.780273438 c 2
 170.217773438 599.780273438 l 1
99.2880859375 19.900390625 m 0
 258.938476562 19.900390625 357.731445312 109.51953125 373.569335938 199.33984375 c 0
 390.04296875 292.76953125 305.088867188 378.780273438 162.568359375 378.780273438 c 0
 150.168945312 378.780273438 131.239257812 378.780273438 131.239257812 378.780273438 c 1
 67.958984375 19.900390625 l 1
 67.958984375 19.900390625 91.458984375 19.900390625 99.2880859375 19.900390625 c 0
251.30859375 389.549804688 m 1
 335.217773438 389.549804688 461.875976562 333.790039062 438.848632812 203.139648438 c 0
 432.611328125 167.76953125 418.928710938 116.990234375 372.807617188 75.080078125 c 0
 326.674804688 33.08984375 232.026367188 0.0400390625 95.796875 0.0400390625 c 2
 0.0068359375 0.0400390625 l 1
 109.266601562 619.6796875 l 1
 276.65625 619.6796875 l 2
 373.216796875 619.6796875 462.6171875 593.259765625 447.426757812 507.110351562 c 0
 431.098632812 414.509765625 315.337890625 389.549804688 251.30859375 389.549804688 c 1
EndSplineSet
EndChar

StartChar: C
Encoding: 21 67 2
Width: 575
VWidth: 0
Flags: W
HStem: 607.89 25.6299<333.942 479.788>
LayerCount: 2
Fore
SplineSet
55.0087890625 311.969726562 m 0
 90.3818359375 512.580078125 234.037109375 633.51953125 403.666992188 633.51953125 c 0
 516.796875 633.51953125 589.568359375 576.650390625 584.139648438 457.559570312 c 1
 584.139648438 457.559570312 574.900390625 455.919921875 570.89453125 455.150390625 c 0
 562.840820312 556.58984375 505.45703125 607.889648438 404.517578125 607.889648438 c 0
 263.086914062 607.889648438 144.915039062 455.3203125 120.275390625 315.580078125 c 0
 97.0615234375 183.9296875 155.861328125 81.6201171875 216.896484375 41.7802734375 c 0
 277.581054688 1.9404296875 418.747070312 17.33984375 484.760742188 106.23046875 c 0
 493.579101562 118.190429688 506.85546875 141.759765625 515.700195312 163.620117188 c 1
 539.709960938 163.620117188 l 1
 525.553710938 113.110351562 495.41796875 69.580078125 447.419921875 35.5 c 0
 315.626953125 -58.0302734375 163.120117188 -9.41015625 105.1328125 64.330078125 c 0
 58.1171875 124.129882812 37.3935546875 212.0703125 55.0087890625 311.969726562 c 0
EndSplineSet
EndChar

StartChar: D
Encoding: 22 68 3
Width: 508
VWidth: 0
Flags: W
HStem: 0 19.8604<67.9717 189.679> 599.78 19.8994<170.228 298.457>
LayerCount: 2
Fore
SplineSet
132.952148438 19.8603515625 m 2
 269.1015625 19.8603515625 397.7421875 171 423.368164062 316.280273438 c 0
 455.630859375 499.25 367.23828125 599.780273438 235.208007812 599.780273438 c 2
 170.227539062 599.780273438 l 1
 67.9716796875 19.8603515625 l 1
 132.952148438 19.8603515625 l 2
238.716796875 619.6796875 m 2
 467.046875 619.6796875 522.655273438 479.650390625 497.940429688 339.540039062 c 0
 476.041015625 215.33984375 423.376953125 130.48046875 356.40234375 76.6904296875 c 0
 289.411132812 22.8095703125 208.280273438 0 129.440429688 0 c 2
 0 0 l 1
 109.266601562 619.6796875 l 1
 238.716796875 619.6796875 l 2
EndSplineSet
EndChar

StartChar: E
Encoding: 23 69 4
Width: 449
VWidth: 0
Flags: W
HStem: 0 19.8799<67.9648 386.18> 321.89 19.8799<124.724 325.367> 599.8 19.8799<170.221 493.32>
LayerCount: 2
Fore
SplineSet
67.96484375 19.8798828125 m 1
 393.043945312 19.8798828125 l 1
 386.1796875 0 l 1
 0 0 l 1
 109.266601562 619.6796875 l 1
 495.446289062 619.6796875 l 1
 493.3203125 599.799804688 l 1
 170.220703125 599.799804688 l 1
 124.723632812 341.76953125 l 1
 328.873046875 341.76953125 l 1
 325.3671875 321.889648438 l 1
 121.217773438 321.889648438 l 1
 67.96484375 19.8798828125 l 1
EndSplineSet
EndChar

StartChar: F
Encoding: 24 70 5
Width: 446
VWidth: 0
Flags: W
HStem: 0 21G<0 67.9865> 321.89 19.8799<124.724 325.367> 599.8 19.8799<170.221 495.3>
LayerCount: 2
Fore
SplineSet
495.446289062 619.6796875 m 1
 495.299804688 599.799804688 l 1
 170.220703125 599.799804688 l 1
 124.723632812 341.76953125 l 1
 328.873046875 341.76953125 l 1
 325.3671875 321.889648438 l 1
 121.217773438 321.889648438 l 1
 64.4599609375 0 l 1
 0 0 l 1
 109.266601562 619.6796875 l 1
 495.446289062 619.6796875 l 1
EndSplineSet
EndChar

StartChar: G
Encoding: 25 71 6
Width: 573
VWidth: 0
Flags: W
HStem: 607.97 25.5498<331.071 465.908>
VStem: 561.394 13<446.12 475.825>
LayerCount: 2
Fore
SplineSet
561.393554688 444.139648438 m 1
 546.280273438 563.780273438 483.041015625 607.959960938 398.751953125 607.969726562 c 0
 243.87109375 607.969726562 141.563476562 423.490234375 121.005859375 306.900390625 c 0
 98.232421875 177.75 151.912109375 80.08984375 214.421875 39.8203125 c 0
 274.288085938 1.1796875 376.388671875 13.66015625 436.922851562 103.23046875 c 0
 458.08984375 134.459960938 469.873046875 181.26953125 474.515625 207.599609375 c 2
 492.310546875 308.009765625 l 1
 557.270507812 308.009765625 l 1
 539.475585938 207.599609375 l 2
 523.696289062 118.110351562 486.83203125 68.1201171875 440.568359375 33.6201171875 c 0
 380.752929688 -10.8701171875 309.293945312 -16.0302734375 282.444335938 -16.0302734375 c 0
 232.274414062 -16.0302734375 158.565429688 -2.6904296875 104.740234375 61.9296875 c 0
 57.1162109375 119.240234375 38.052734375 205.370117188 55.3330078125 303.370117188 c 0
 72.720703125 401.98046875 123.440429688 499.809570312 191.103515625 556.599609375 c 0
 277.126953125 628.700195312 349.307617188 633.51953125 403.59765625 633.51953125 c 0
 500.827148438 633.51953125 581.375 569.139648438 574.393554688 446.120117188 c 1
 574.393554688 446.120117188 566.795898438 445 561.393554688 444.139648438 c 1
EndSplineSet
EndChar

StartChar: H
Encoding: 26 72 7
Width: 517
VWidth: 0
Flags: W
HStem: 0 21G<0 67.9972 375.431 443.507> 318.45 19.8799<124.127 431.582> 599.68 20G<105.74 173.737 481.171 549.247>
LayerCount: 2
Fore
SplineSet
549.247070312 619.6796875 m 1
 439.98046875 0 l 1
 375.430664062 0 l 1
 431.58203125 318.450195312 l 1
 120.622070312 318.450195312 l 1
 64.470703125 0 l 1
 0 0 l 1
 109.266601562 619.6796875 l 1
 173.737304688 619.6796875 l 1
 124.126953125 338.330078125 l 1
 435.086914062 338.330078125 l 1
 484.697265625 619.6796875 l 1
 549.247070312 619.6796875 l 1
EndSplineSet
EndChar

StartChar: I
Encoding: 27 73 8
Width: 137
VWidth: 0
Flags: W
HStem: 0 21G<0 68.0764> 599.68 20G<105.74 173.816>
VStem: 0 173.816
LayerCount: 2
Fore
SplineSet
0 0 m 1
 109.266601562 619.6796875 l 1
 173.81640625 619.6796875 l 1
 64.5498046875 0 l 1
 0 0 l 1
EndSplineSet
EndChar

StartChar: J
Encoding: 28 74 9
Width: 267
VWidth: 0
Flags: W
HStem: -141.09 19.6299<-34.0479 -12.3398> 599.68 20G<204.74 272.816>
VStem: -34.0684 306.885
LayerCount: 2
Fore
SplineSet
-34.068359375 -141.08984375 m 1
 -34.0478515625 -121.459960938 l 1
 63.49609375 -90.080078125 96.96484375 -11.5400390625 107.208007812 46.5498046875 c 2
 208.266601562 619.6796875 l 1
 272.81640625 619.6796875 l 1
 180.86328125 98.1904296875 l 2
 174.670898438 63.0703125 168.051757812 33.8095703125 160.794921875 8.759765625 c 0
 139.926757812 -63.1904296875 74.10546875 -109.419921875 -34.068359375 -141.08984375 c 1
EndSplineSet
EndChar

StartChar: K
Encoding: 29 75 10
Width: 474
VWidth: 0
Flags: W
HStem: 0 21G<0 67.9865 312.532 411.909> 599.68 20G<105.74 173.727 438.503 487.956>
LayerCount: 2
Fore
SplineSet
180.50390625 344.26953125 m 1
 411.909179688 0 l 1
 326.359375 0 l 1
 117.682617188 301.83984375 l 1
 64.4599609375 0 l 1
 0 0 l 1
 109.266601562 619.6796875 l 1
 173.7265625 619.6796875 l 1
 119.913085938 314.490234375 l 1
 460.845703125 619.6796875 l 1
 487.956054688 619.6796875 l 1
 180.50390625 344.26953125 l 1
EndSplineSet
EndChar

StartChar: L
Encoding: 30 76 11
Width: 440
VWidth: 0
Flags: W
HStem: 0 19.8799<67.9648 386.18> 599.68 20G<105.74 173.727>
LayerCount: 2
Fore
SplineSet
393.043945312 19.8798828125 m 1
 386.1796875 0 l 1
 0 0 l 1
 109.266601562 619.6796875 l 1
 173.7265625 619.6796875 l 1
 67.96484375 19.8798828125 l 1
 393.043945312 19.8798828125 l 1
EndSplineSet
EndChar

StartChar: M
Encoding: 31 77 12
Width: 618
VWidth: 0
Flags: W
HStem: 0 21G<-0.480469 22.8361 472.45 540.523> 599.68 20G<105.26 167.118 583.311 646.267>
LayerCount: 2
Fore
SplineSet
622.861328125 487.400390625 m 1
 537 0 l 1
 472.450195312 0 l 1
 566.58203125 534.299804688 l 1
 262.610351562 12.650390625 l 1
 113.703125 535.330078125 l 1
 19.3095703125 0 l 1
 -0.48046875 0 l 1
 108.786132812 619.6796875 l 1
 161.456054688 619.6796875 l 1
 303.103515625 119.290039062 l 1
 594.9765625 619.6796875 l 1
 646.266601562 619.6796875 l 1
 622.861328125 487.400390625 l 1
EndSplineSet
EndChar

StartChar: N
Encoding: 32 78 13
Width: 550
VWidth: 0
Flags: W
HStem: 0 21G<-0.270508 23.0568> 599.68 20G<105.47 179.206 550.95 574.267>
LayerCount: 2
Fore
SplineSet
554.4765625 619.6796875 m 1
 574.266601562 619.6796875 l 1
 463.467773438 -8.6904296875 l 1
 443.84765625 -8.6904296875 l 1
 118.962890625 563.91015625 l 1
 19.5302734375 0 l 1
 -0.2705078125 0 l 1
 108.99609375 619.6796875 l 1
 167.866210938 619.6796875 l 1
 462.768554688 99.580078125 l 1
 554.4765625 619.6796875 l 1
EndSplineSet
EndChar

StartChar: O
Encoding: 33 79 14
Width: 550
VWidth: 0
Flags: W
HStem: -16.0596 21.0791<214.1 308.876> 613.15 20.3691<309.173 405.641>
LayerCount: 2
Fore
SplineSet
363.916992188 633.51953125 m 0
 537.747070312 633.51953125 588.330078125 491.530273438 556.239257812 309.58984375 c 0
 536.219726562 196.049804688 463.5078125 -16.0595703125 241.818359375 -16.0595703125 c 0
 60.568359375 -16.0595703125 31.2890625 161.91015625 57.3291015625 309.58984375 c 0
 79.33984375 434.419921875 163.537109375 633.51953125 363.916992188 633.51953125 c 0
122.56640625 306.91015625 m 0
 94.9482421875 150.280273438 138.235351562 5.01953125 263.724609375 5.01953125 c 0
 358.3046875 5.01953125 462.1328125 148.490234375 490.06640625 306.91015625 c 0
 518.850585938 470.150390625 478.905273438 613.150390625 358.115234375 613.150390625 c 0
 233.025390625 613.150390625 147.864257812 450.379882812 122.56640625 306.91015625 c 0
EndSplineSet
EndChar

StartChar: P
Encoding: 34 80 15
Width: 447
VWidth: 0
Flags: W
HStem: 0 21G<0 67.9865> 221.36 19.6992<106.995 232.682> 599.39 20.29<170.179 306.535>
LayerCount: 2
Fore
SplineSet
170.178710938 599.389648438 m 1
 106.995117188 241.059570312 l 1
 147.805664062 241.059570312 l 2
 325.185546875 241.059570312 387.958007812 342.129882812 401.748046875 420.33984375 c 0
 416.364257812 503.23046875 368.848632812 599.389648438 244.678710938 599.389648438 c 2
 170.178710938 599.389648438 l 1
463.216796875 504.780273438 m 0
 486.41015625 437.650390625 455.306640625 348.139648438 408.28515625 301.5703125 c 0
 330.91796875 224.969726562 268.052734375 221.360351562 135.512695312 221.360351562 c 2
 103.4921875 221.360351562 l 1
 64.4599609375 0 l 1
 0 0 l 1
 109.266601562 619.6796875 l 1
 242.666992188 619.6796875 l 2
 329.157226562 619.6796875 425.321289062 614.4296875 463.216796875 504.780273438 c 0
EndSplineSet
EndChar

StartChar: Q
Encoding: 35 81 16
Width: 557
VWidth: 0
Flags: W
HStem: -141.12 13.6904<433.044 451.646> -16.0498 20.3096<212.939 227.312> 613.17 20.3496<306.613 403.168>
LayerCount: 2
Fore
SplineSet
119.912109375 307.169921875 m 0
 92.267578125 150.389648438 135.470703125 4.259765625 261.0703125 4.259765625 c 0
 355.720703125 4.259765625 459.784179688 148.610351562 487.7421875 307.169921875 c 0
 516.55078125 470.549804688 476.48828125 613.169921875 355.587890625 613.169921875 c 0
 230.377929688 613.169921875 145.231445312 450.759765625 119.912109375 307.169921875 c 0
288.110351562 -12.8701171875 m 1
 317.451171875 -87.330078125 368.099609375 -105.4296875 457.0703125 -127.4296875 c 1
 454.8984375 -132.940429688 451.646484375 -141.120117188 451.646484375 -141.120117188 c 1
 338.9765625 -141.120117188 249.176757812 -117.870117188 224.83984375 -16.0498046875 c 1
 56.091796875 -7.7001953125 29.27734375 166.040039062 54.6279296875 309.809570312 c 0
 76.6669921875 434.799804688 160.806640625 633.51953125 361.426757812 633.51953125 c 0
 535.336914062 633.51953125 586.086914062 491.91015625 553.977539062 309.809570312 c 0
 535.506835938 205.059570312 471.454101562 13.75 288.110351562 -12.8701171875 c 1
EndSplineSet
EndChar

StartChar: R
Encoding: 36 82 17
Width: 504
VWidth: 0
Flags: W
HStem: 0 21G<0 67.9865 359.244 447.971> 312.41 18.0596<122.741 212.066> 599.34 20.3301<170.15 314.093>
LayerCount: 2
Fore
SplineSet
122.741210938 330.469726562 m 1
 163.62109375 330.469726562 l 2
 313.380859375 330.469726562 376.724609375 381.25 391.444335938 464.73046875 c 0
 406.05859375 547.610351562 351.110351562 599.33984375 244.6796875 599.33984375 c 2
 170.150390625 599.33984375 l 1
 122.741210938 330.469726562 l 1
289.888671875 322.740234375 m 1
 447.970703125 0 l 1
 369.310546875 0 l 1
 212.06640625 312.41015625 l 1
 182.138671875 310.610351562 119.258789062 310.780273438 119.258789062 310.780273438 c 1
 64.4599609375 0 l 1
 0 0 l 1
 109.264648438 619.669921875 l 1
 242.665039062 619.669921875 l 2
 329.165039062 619.669921875 437.135742188 622.849609375 457.41015625 519.66015625 c 0
 481.66796875 396.580078125 350.149414062 333.0703125 289.888671875 322.740234375 c 1
EndSplineSet
EndChar

StartChar: S
Encoding: 37 83 18
Width: 475
VWidth: 0
Flags: W
HStem: -16.0703 24.8799<164.632 277.378> 613.63 19.8896<264.795 380.362>
VStem: 33.5479 16.6074<141.655 217.093>
LayerCount: 2
Fore
SplineSet
445.997070312 159.629882812 m 0
 427.5390625 54.9501953125 319.036132812 -16.0703125 215.985351562 -16.0703125 c 0
 120.9453125 -16.0703125 61.5927734375 37.3896484375 33.5478515625 107.290039062 c 1
 31.451171875 166.690429688 38.2861328125 217.129882812 38.2861328125 217.129882812 c 1
 38.2861328125 217.129882812 46.4814453125 217.73046875 51.5478515625 218.16015625 c 1
 51.068359375 211.530273438 49.873046875 195 50.1552734375 185.879882812 c 0
 53.5869140625 88.169921875 139.623046875 8.8095703125 218.473632812 8.8095703125 c 0
 278.733398438 8.8095703125 379.328125 56.9296875 394.811523438 144.740234375 c 0
 408.745117188 223.759765625 356.473632812 258.799804688 252.966796875 286.950195312 c 0
 121.96484375 322.669921875 90.650390625 387.75 107.87890625 485.459960938 c 0
 122.1015625 566.120117188 215.676757812 633.51953125 325.526367188 633.51953125 c 0
 405.236328125 633.51953125 433.005859375 616.219726562 471.225585938 577.650390625 c 1
 480.123046875 540.719726562 466.345703125 467.459960938 466.345703125 467.459960938 c 1
 466.345703125 467.459960938 457.813476562 466.4296875 452.546875 465.8203125 c 1
 452.963867188 470.120117188 453.639648438 479.849609375 453.807617188 488.629882812 c 0
 456.13671875 597.450195312 364.728515625 613.629882812 326.508789062 613.629882812 c 0
 256.518554688 613.629882812 177.495117188 577.990234375 163.424804688 498.190429688 c 0
 151.888671875 432.76953125 180.684570312 378.360351562 278.08203125 350.73046875 c 0
 403.18359375 315.1796875 466.836914062 277.8203125 445.997070312 159.629882812 c 0
EndSplineSet
EndChar

StartChar: T
Encoding: 38 84 19
Width: 558
VWidth: 0
Flags: W
HStem: 0 21G<219.899 287.897> 599.89 19.79<109.267 325.676 390.146 609.956>
LayerCount: 2
Fore
SplineSet
613.446289062 619.6796875 m 5
 609.956054688 599.889648438 l 5
 390.146484375 599.889648438 l 5
 284.370117188 0 l 5
 219.899414062 0 l 5
 325.67578125 599.889648438 l 5
 105.776367188 599.889648438 l 5
 109.266601562 619.6796875 l 5
 613.446289062 619.6796875 l 5
EndSplineSet
EndChar

StartChar: U
Encoding: 39 85 20
Width: 473
VWidth: 0
Flags: W
HStem: -16.0703 17.3799<162.105 276.222> 599.68 19.9902G<105.734 173.725 484.93 508.257>
LayerCount: 2
Fore
SplineSet
488.466796875 619.6796875 m 1
 508.256835938 619.6796875 l 1
 429.420898438 172.580078125 l 2
 407.522460938 48.3896484375 339.185546875 -16.0703125 201.135742188 -16.0703125 c 0
 81.24609375 -16.0703125 5.484375 31.6103515625 29.9453125 170.33984375 c 2
 109.264648438 619.669921875 l 1
 173.724609375 619.669921875 l 1
 94.0849609375 168.009765625 l 2
 71.7158203125 41.150390625 138.360351562 1.3095703125 215.30078125 1.3095703125 c 0
 285.959960938 1.3095703125 384.55078125 30.400390625 409.619140625 172.5703125 c 2
 488.45703125 619.6796875 l 1
 488.466796875 619.6796875 l 1
EndSplineSet
EndChar

StartChar: V
Encoding: 40 86 21
Width: 500
VWidth: 0
Flags: W
HStem: 599.68 20G<109.267 181.824 527.054 557.407>
LayerCount: 2
Fore
SplineSet
536.2265625 619.6796875 m 1
 557.407226562 619.6796875 l 1
 264.826171875 -16.0703125 l 1
 222.396484375 -16.0703125 l 1
 109.266601562 619.6796875 l 1
 178.296875 619.6796875 l 1
 277.69921875 55.9697265625 l 1
 536.2265625 619.6796875 l 1
EndSplineSet
EndChar

StartChar: W
Encoding: 41 87 22
Width: 747
VWidth: 0
Flags: W
HStem: 599.68 20G<109.267 181.9 347.657 423.166 525.387 555.847 766.221 796.477>
LayerCount: 2
Fore
SplineSet
775.396484375 619.6796875 m 1
 796.4765625 619.6796875 l 1
 503.90625 -16.0703125 l 1
 461.56640625 -16.0703125 l 1
 407.990234375 299.440429688 l 1
 264.842773438 -15.98046875 l 1
 222.413085938 -15.98046875 l 1
 109.266601562 619.6796875 l 1
 178.376953125 619.6796875 l 1
 277.6875 55.9599609375 l 1
 401.974609375 331.280273438 l 1
 347.657226562 619.6796875 l 1
 420.376953125 619.6796875 l 1
 448.201171875 420.190429688 l 1
 533.987304688 619.6796875 l 1
 555.846679688 619.6796875 l 1
 454.28125 388.259765625 l 1
 516.779296875 55.9697265625 l 1
 775.396484375 619.6796875 l 1
EndSplineSet
EndChar

StartChar: X
Encoding: 42 88 23
Width: 493
VWidth: 0
Flags: W
HStem: 0 21G<24.5205 63.4383 363.563 447.25> 599.68 19.8301G<109.236 192.923 478.755 517.627>
LayerCount: 2
Fore
SplineSet
493.796875 619.6796875 m 1
 517.626953125 619.6796875 l 1
 303.456054688 339.009765625 l 1
 447.25 0 l 1
 372.049804688 0 l 1
 255.103515625 275.58984375 l 1
 48.4404296875 0 l 1
 24.5205078125 0 l 1
 247.884765625 292.719726562 l 1
 109.236328125 619.509765625 l 1
 184.436523438 619.509765625 l 1
 295.9765625 356.650390625 l 1
 493.796875 619.6796875 l 1
EndSplineSet
EndChar

StartChar: Y
Encoding: 43 89 24
Width: 518
VWidth: 0
Flags: W
HStem: 0 21G<207.5 275.576> 599.68 20G<109.267 190.839 552.859 590.546>
LayerCount: 2
Fore
SplineSet
567.736328125 619.6796875 m 1
 590.545898438 619.6796875 l 1
 316.272460938 250.799804688 l 1
 272.049804688 0 l 1
 207.5 0 l 1
 251.267578125 248.219726562 l 1
 109.266601562 619.6796875 l 1
 183.196289062 619.6796875 l 1
 313.698242188 278.169921875 l 1
 567.736328125 619.6796875 l 1
EndSplineSet
EndChar

StartChar: Z
Encoding: 44 90 25
Width: 477
VWidth: 0
Flags: W
HStem: 0 19.7998<63.6514 417.34> 599.89 19.79<109.267 431.706>
LayerCount: 2
Fore
SplineSet
420.831054688 19.7998046875 m 1
 417.33984375 0 l 1
 -15.3203125 0 l 1
 -11.8603515625 19.6201171875 l 1
 431.706054688 599.889648438 l 1
 105.776367188 599.889648438 l 1
 109.266601562 619.6796875 l 1
 521.696289062 619.6796875 l 1
 63.6513671875 19.7998046875 l 1
 420.831054688 19.7998046875 l 1
EndSplineSet
EndChar

StartChar: comma
Encoding: 2 44 26
Width: 166
VWidth: 0
Flags: W
HStem: -16.0498 108.1<23.5985 74.6841>
VStem: 6.7002 108.1
LayerCount: 2
Fore
SplineSet
114.799804688 38 m 0
 111.279296875 18.0302734375 108.989257812 7.48046875 98.865234375 -12.16015625 c 0
 84.2958984375 -40.349609375 53.2216796875 -55.23046875 17.0087890625 -73.73046875 c 1
 15.396484375 -69.150390625 12.4365234375 -60.9296875 10.5048828125 -55.66015625 c 1
 17.4541015625 -52.5498046875 28.1689453125 -47.7001953125 30.05078125 -46.83984375 c 0
 43.2734375 -40.5302734375 63.43359375 -26.6904296875 75.0390625 -10.9501953125 c 1
 67.474609375 -14.150390625 59.439453125 -16.0498046875 51.2197265625 -16.0498046875 c 0
 21.3896484375 -16.0498046875 1.4384765625 8.16015625 6.7001953125 38 c 0
 11.9619140625 67.83984375 40.4404296875 92.0498046875 70.2802734375 92.0498046875 c 0
 100.120117188 92.0498046875 120.059570312 67.830078125 114.799804688 38 c 0
EndSplineSet
EndChar

StartChar: hyphen
Encoding: 3 45 27
Width: 276
VWidth: 0
Flags: W
HStem: 183.729 64.5703<43.7822 248.666>
VStem: 32.3965 227.655
LayerCount: 2
Fore
SplineSet
43.7822265625 248.298828125 m 5
 260.051757812 248.298828125 l 5
 248.666015625 183.728515625 l 5
 32.396484375 183.728515625 l 5
 43.7822265625 248.298828125 l 5
EndSplineSet
EndChar

StartChar: period
Encoding: 4 46 28
Width: 162
VWidth: 0
Flags: W
HStem: -16.0596 108.119<23.5899 97.9294>
VStem: 6.7002 108.119<0.700543 75.2953>
LayerCount: 2
Fore
SplineSet
70.2919921875 92.0595703125 m 0
 100.15234375 92.0595703125 120.083007812 67.849609375 114.819335938 38 c 0
 109.5546875 8.1396484375 81.087890625 -16.0595703125 51.2275390625 -16.0595703125 c 0
 21.3671875 -16.0595703125 1.435546875 8.1396484375 6.7001953125 38 c 0
 11.9658203125 67.8603515625 40.431640625 92.0595703125 70.2919921875 92.0595703125 c 0
EndSplineSet
EndChar

StartChar: slash
Encoding: 5 47 29
Width: 231
VWidth: 0
Flags: W
HStem: 613.52 20G<285.02 297.666>
VStem: -1.49707 313.747
LayerCount: 2
Fore
SplineSet
-1.4970703125 -10.9296875 m 1
 294.196289062 633.51953125 l 1
 301.134765625 631.129882812 312.25 627.190429688 312.25 627.190429688 c 1
 16.16796875 -16.0595703125 l 1
 9.2431640625 -14.099609375 -1.4970703125 -10.9296875 -1.4970703125 -10.9296875 c 1
EndSplineSet
EndChar

StartChar: zero
Encoding: 6 48 30
Width: 510
VWidth: 0
Flags: W
HStem: -16.0801 19.8604<196.202 279.373> 613.66 19.8496<287.735 384.336>
LayerCount: 2
Fore
SplineSet
503.891601562 318.849609375 m 0
 470.484375 129.389648438 391.116210938 -16.0703125 237.344726562 -16.080078125 c 0
 81.8154296875 -16.080078125 20.6640625 117.190429688 55.41796875 314.290039062 c 0
 97.099609375 550.6796875 218.745117188 633.509765625 349.71484375 633.509765625 c 0
 463.015625 633.509765625 546.533203125 560.6796875 503.891601562 318.849609375 c 0
121.353515625 321.98046875 m 0
 88.4931640625 135.620117188 149.787109375 3.7802734375 233.727539062 3.7802734375 c 0
 316.647460938 3.7802734375 399.630859375 93.919921875 439.293945312 318.860351562 c 0
 465.745117188 468.870117188 456.78515625 613.66015625 339.844726562 613.66015625 c 0
 217.044921875 613.66015625 148.3125 474.870117188 121.353515625 321.98046875 c 0
EndSplineSet
EndChar

StartChar: one
Encoding: 7 49 31
Width: 145
VWidth: 0
Flags: W
HStem: 0 21G<0 68.0764> 599.68 20G<105.74 173.816>
VStem: 0 173.816
LayerCount: 2
Fore
SplineSet
0 0 m 1
 109.266601562 619.6796875 l 1
 173.81640625 619.6796875 l 1
 64.5498046875 0 l 1
 0 0 l 1
EndSplineSet
EndChar

StartChar: two
Encoding: 8 50 32
Width: 457
VWidth: 0
Flags: W
HStem: 0 64.5498<49.5225 386.7> 614.16 19.3496<240.17 353.311>
VStem: 87.8125 38.4658<497.189 536.784>
LayerCount: 2
Fore
SplineSet
87.8125 498.009765625 m 5
 106.556640625 568.75 197.807617188 633.51953125 310.525390625 633.509765625 c 4
 414.235351562 633.509765625 506.322265625 597.879882812 487.049804688 488.580078125 c 4
 471.921875 402.780273438 396.60546875 343.650390625 352.188476562 308.450195312 c 6
 49.5224609375 64.5498046875 l 5
 414.322265625 64.3798828125 l 5
 386.700195312 0 l 5
 -8.330078125 0 l 5
 0.1689453125 48.2001953125 l 5
 264.680664062 261.219726562 l 6
 300.709960938 290.8203125 345.561523438 323.610351562 368.618164062 353.8203125 c 4
 392.241210938 384.799804688 405.21484375 413.459960938 417.87109375 485.240234375 c 4
 435.9453125 587.740234375 361.43359375 614.16015625 292.663085938 614.16015625 c 4
 222.403320312 614.16015625 147.970703125 581.139648438 126.278320312 493.5 c 5
 87.8125 498.009765625 l 5
EndSplineSet
EndChar

StartChar: three
Encoding: 9 51 33
Width: 424
VWidth: 0
Flags: W
HStem: -16.0703 19.8398<103.132 221.01> 613.72 19.79<226.399 333.576>
VStem: 17.9922 46.9873<26.2923 95.4502>
LayerCount: 2
Fore
SplineSet
64.9794921875 95.4501953125 m 5
 45.92578125 15.1201171875 117.307617188 3.7900390625 162.814453125 3.76953125 c 4
 278.344726562 3.76953125 327.255859375 104.950195312 339.498046875 174.379882812 c 4
 360.697265625 294.610351562 274.227539062 324.950195312 212.2578125 324.950195312 c 5
 215.795898438 345.01953125 l 5
 287.935546875 345.01953125 372.231445312 421.16015625 381.658203125 474.620117188 c 4
 401.674804688 588.139648438 340.666015625 613.719726562 280.6953125 613.719726562 c 4
 218.536132812 613.719726562 175.629882812 582.26953125 160.657226562 545.110351562 c 5
 120.778320312 554.98046875 l 5
 152.920898438 611.370117188 226.184570312 633.509765625 283.28515625 633.509765625 c 4
 410.044921875 633.509765625 463.73046875 573.709960938 447.13671875 479.599609375 c 4
 433.563476562 402.620117188 349.430664062 333.139648438 284.05078125 333.139648438 c 5
 343.840820312 333.139648438 422.048828125 276.240234375 405.044921875 179.809570312 c 4
 374.596679688 7.1298828125 216.35546875 -16.0703125 167.74609375 -16.0703125 c 4
 58.0859375 -16.0703125 4.302734375 39.76953125 17.9921875 102.040039062 c 5
 64.9794921875 95.4501953125 l 5
EndSplineSet
EndChar

StartChar: four
Encoding: 10 52 34
Width: 460
VWidth: 0
Flags: W
HStem: 0 21G<280.06 348.136> 185.99 19.8594<61.8564 312.854 380.91 455.814> 599.68 20G<420.331 453.876>
LayerCount: 2
Fore
SplineSet
316.356445312 205.849609375 m 1
 372.583984375 524.73046875 l 1
 61.8564453125 205.849609375 l 1
 316.356445312 205.849609375 l 1
380.91015625 205.870117188 m 1
 459.3203125 205.870117188 l 1
 457.635742188 196.3203125 455.814453125 185.990234375 455.814453125 185.990234375 c 1
 377.404296875 185.990234375 l 1
 344.609375 0 l 1
 280.059570312 0 l 1
 312.854492188 185.990234375 l 1
 32.794921875 185.990234375 l 1
 36.2548828125 205.610351562 l 1
 36.470703125 205.870117188 l 1
 439.826171875 619.6796875 l 1
 453.875976562 619.6796875 l 1
 380.91015625 205.870117188 l 1
EndSplineSet
EndChar

StartChar: five
Encoding: 11 53 35
Width: 457
VWidth: 0
Flags: W
HStem: -16.0703 19.79<106.923 233.558> 388.22 20.0498<131.629 286.347> 555.04 64.6396<138.527 435.657>
LayerCount: 2
Fore
SplineSet
208.731445312 354.639648438 m 5
 208.545898438 354.549804688 208.345703125 354.379882812 208.056640625 354.209960938 c 5
 208.146484375 354.209960938 208.162109375 354.299804688 208.17578125 354.379882812 c 4
 208.352539062 354.469726562 208.551757812 354.639648438 208.731445312 354.639648438 c 5
64.8544921875 90.4296875 m 5
 56.7265625 25.2197265625 104.0078125 3.73046875 167.3359375 3.7197265625 c 4
 296.275390625 3.7197265625 348.255859375 86.1796875 371.264648438 216.669921875 c 4
 399.75390625 378.240234375 265.342773438 388.219726562 212.0625 388.219726562 c 4
 161.623046875 388.219726562 129.560546875 381.169921875 84.30078125 360.25 c 5
 130.045898438 619.6796875 l 5
 463.236328125 619.6796875 l 5
 435.657226562 555.040039062 l 5
 138.52734375 555.040039062 l 5
 109.703125 391.5703125 l 5
 146.1015625 405.169921875 182.5390625 408.26953125 225.579101562 408.26953125 c 4
 292.2890625 408.26953125 471.279296875 387.009765625 440.211914062 210.8203125 c 4
 410.20703125 40.650390625 265.416015625 -16.0703125 163.845703125 -16.0703125 c 4
 67.8154296875 -16.0703125 11.349609375 32.8896484375 16.90625 95.8798828125 c 5
 64.8544921875 90.4296875 l 5
EndSplineSet
EndChar

StartChar: six
Encoding: 12 54 36
Width: 435
VWidth: 0
Flags: W
HStem: -16.0703 20.3203<162.002 254.7> 377.9 19.4795<226.923 313.885> 620.04 13.4795<446.125 463.085>
LayerCount: 2
Fore
SplineSet
211.518554688 4.25 m 4
 296.098632812 4.25 347.432617188 101.9296875 362.889648438 189.58984375 c 4
 377.180664062 270.639648438 368.36328125 377.900390625 272.453125 377.900390625 c 4
 180.453125 377.900390625 121.4296875 276.530273438 106.364257812 191.08984375 c 4
 87.330078125 83.1396484375 118.8984375 4.25 211.518554688 4.25 c 4
278.717773438 397.379882812 m 4
 410.438476562 397.379882812 445.668945312 293.309570312 429.569335938 201.950195312 c 4
 400.346679688 36.2197265625 282.076171875 -16.0703125 200.755859375 -16.0703125 c 4
 107.67578125 -16.0703125 7.21875 40.9404296875 45.3740234375 257.330078125 c 4
 84.345703125 478.349609375 300.833984375 598.23046875 439.98828125 628.709960938 c 4
 446.321289062 630.08984375 456.229492188 632.23046875 462.556640625 633.51953125 c 5
 463.05078125 627.080078125 463.609375 620.040039062 463.609375 620.040039062 c 5
 340.8515625 584.150390625 182.39453125 523.08984375 118.344726562 312.290039062 c 5
 131.732421875 335.129882812 192.078125 397.379882812 278.717773438 397.379882812 c 4
EndSplineSet
EndChar

StartChar: seven
Encoding: 13 55 37
Width: 396
VWidth: 0
Flags: W
HStem: 555.02 64.6504<109.385 397.485>
LayerCount: 2
Fore
SplineSet
457.006835938 619.6796875 m 1
 83.0263671875 -16.0703125 l 1
 83.0263671875 -16.0703125 70.904296875 -10.1298828125 66.29296875 -7.98046875 c 1
 397.485351562 555.01953125 l 1
 83.865234375 555.01953125 l 1
 109.384765625 619.669921875 l 1
 457.004882812 619.669921875 l 1
 457.006835938 619.6796875 l 1
EndSplineSet
EndChar

StartChar: eight
Encoding: 14 56 38
Width: 407
VWidth: 0
Flags: W
HStem: -16.0703 19.8008<134.567 218.237> 613.81 19.71<229.636 314.713>
LayerCount: 2
Fore
SplineSet
252.319335938 337.209960938 m 5
 341.061523438 256.75 377.87109375 214.150390625 364.216796875 136.76953125 c 4
 350.422851562 58.5400390625 270.146484375 -16.0703125 160.846679688 -16.0703125 c 4
 47.24609375 -16.0703125 4.2705078125 61.8203125 16.365234375 130.41015625 c 4
 30.3720703125 209.849609375 82.4501953125 251.41015625 175.180664062 315.099609375 c 5
 81.802734375 402.450195312 76.349609375 433 85.8798828125 487.049804688 c 4
 98.4755859375 558.48046875 163.517578125 633.51953125 275.827148438 633.51953125 c 4
 375.046875 633.51953125 425.185546875 571.809570312 413.608398438 506.150390625 c 4
 402.864257812 445.219726562 366.758789062 415.700195312 252.319335938 337.209960938 c 5
155.244140625 514.41015625 m 4
 146.3359375 463.889648438 153.311523438 439.01953125 239.326171875 350.459960938 c 5
 322.240234375 414.5703125 349.4375 447.790039062 358.892578125 501.41015625 c 4
 369.454101562 561.309570312 336.28125 613.809570312 273.202148438 613.809570312 c 4
 207.19140625 613.809570312 162.953125 558.129882812 155.244140625 514.41015625 c 4
171.3984375 3.73046875 m 4
 232.328125 3.73046875 284.423828125 50.7197265625 294.1953125 106.139648438 c 4
 306.381835938 175.25 283.15234375 203.610351562 188.178710938 301.9296875 c 5
 133.327148438 258.8203125 98.7353515625 231.01953125 81.8603515625 135.3203125 c 4
 66.017578125 45.4697265625 125.528320312 3.73046875 171.3984375 3.73046875 c 4
EndSplineSet
EndChar

StartChar: nine
Encoding: 15 57 39
Width: 447
VWidth: 0
Flags: W
HStem: 223.4 19.2695<188.308 274.542> 613.24 20.2793<247.024 338.983>
LayerCount: 2
Fore
SplineSet
229.399414062 242.669921875 m 4
 320.649414062 242.669921875 379.17578125 343.200195312 394.1171875 427.940429688 c 4
 412.995117188 535 381.681640625 613.240234375 289.831054688 613.240234375 c 4
 205.951171875 613.240234375 155.040039062 516.370117188 139.709960938 429.4296875 c 4
 125.53515625 349.040039062 134.2890625 242.669921875 229.399414062 242.669921875 c 4
300.5078125 633.51953125 m 4
 392.907226562 633.51953125 493.618164062 583.620117188 454.583007812 362.299804688 c 4
 418.185546875 155.879882812 235.041015625 51.73046875 138.81640625 16.990234375 c 4
 101.258789062 3.4501953125 42.2998046875 -16.0498046875 42.2998046875 -16.0498046875 c 5
 42.2998046875 -16.0498046875 40.97265625 -3.7900390625 40.2890625 2.9404296875 c 5
 45.39453125 4.3896484375 51.5078125 6.169921875 54.1943359375 6.9404296875 c 6
 54.1943359375 6.9404296875 172.5703125 39.2998046875 255.966796875 108.530273438 c 4
 299.942382812 144.969726562 344.00390625 201.690429688 382.288085938 307.709960938 c 5
 368.923828125 285.059570312 309.08203125 223.400390625 223.162109375 223.400390625 c 4
 92.6123046875 223.400390625 57.58984375 326.610351562 73.55078125 417.129882812 c 4
 102.546875 581.5703125 219.947265625 633.51953125 300.5078125 633.51953125 c 4
EndSplineSet
EndChar

StartChar: colon
Encoding: 16 58 40
Width: 185
VWidth: 0
Flags: W
HStem: -16.0596 108.119<23.5899 97.9294> 327.82 108.12<84.2258 158.565>
VStem: 6.7002 168.755
LayerCount: 2
Fore
SplineSet
111.86328125 327.8203125 m 0
 82.0029296875 327.8203125 62.072265625 352.030273438 67.3359375 381.879882812 c 0
 72.6005859375 411.740234375 101.067382812 435.940429688 130.927734375 435.940429688 c 0
 160.788085938 435.940429688 180.719726562 411.740234375 175.455078125 381.879882812 c 0
 170.189453125 352.01953125 141.723632812 327.8203125 111.86328125 327.8203125 c 0
70.2919921875 92.0595703125 m 0
 100.15234375 92.0595703125 120.083007812 67.849609375 114.819335938 38 c 0
 109.5546875 8.1396484375 81.087890625 -16.0595703125 51.2275390625 -16.0595703125 c 0
 21.3671875 -16.0595703125 1.435546875 8.1396484375 6.7001953125 38 c 0
 11.9658203125 67.8603515625 40.431640625 92.0595703125 70.2919921875 92.0595703125 c 0
EndSplineSet
EndChar

StartChar: semicolon
Encoding: 17 59 41
Width: 185
VWidth: 0
Flags: W
HStem: -16.0498 108.1<23.5985 74.6841> 327.86 108.08<84.2273 158.532>
VStem: 6.7002 168.719
LayerCount: 2
Fore
SplineSet
114.799804688 38 m 0
 111.279296875 18.0302734375 108.989257812 7.48046875 98.865234375 -12.16015625 c 0
 84.2958984375 -40.349609375 53.2216796875 -55.23046875 17.0087890625 -73.73046875 c 1
 15.396484375 -69.150390625 12.4365234375 -60.9296875 10.5048828125 -55.66015625 c 1
 17.4541015625 -52.5498046875 28.1689453125 -47.7001953125 30.05078125 -46.83984375 c 0
 43.2734375 -40.5302734375 63.43359375 -26.6904296875 75.0390625 -10.9501953125 c 1
 67.474609375 -14.150390625 59.439453125 -16.0498046875 51.2197265625 -16.0498046875 c 0
 21.3896484375 -16.0498046875 1.4384765625 8.16015625 6.7001953125 38 c 0
 11.9619140625 67.83984375 40.4404296875 92.0498046875 70.2802734375 92.0498046875 c 0
 100.120117188 92.0498046875 120.059570312 67.830078125 114.799804688 38 c 0
111.850585938 327.860351562 m 0
 82.0107421875 327.860351562 62.0771484375 352.059570312 67.3388671875 381.900390625 c 0
 72.6005859375 411.740234375 101.057617188 435.940429688 130.908203125 435.940429688 c 0
 160.748046875 435.940429688 180.682617188 411.75 175.418945312 381.900390625 c 0
 170.157226562 352.059570312 141.700195312 327.860351562 111.850585938 327.860351562 c 0
EndSplineSet
EndChar

StartChar: question
Encoding: 18 63 42
Width: 407
VWidth: 0
Flags: W
HStem: -16.0703 70.0898<131.925 191.696> 604.77 28.7402<214.364 336.339>
VStem: 126.767 70.0898<-10.549 48.499> 174.036 19.7891<144.65 176.794>
LayerCount: 2
Fore
SplineSet
434 496.51953125 m 0xd0
 419.493164062 414.25 376.098632812 381.900390625 307.2421875 316.41015625 c 0
 242.291992188 254.540039062 203.323242188 198.51953125 193.825195312 144.650390625 c 1
 174.036132812 144.650390625 l 1
 183.215820312 196.709960938 214.139648438 254.01953125 243.481445312 289.129882812 c 0
 309.439453125 367.950195312 328.479492188 380.259765625 350.790039062 432.150390625 c 0
 369.749023438 476.209960938 378.25 516.139648438 370.119140625 548.580078125 c 0
 360.987304688 584.639648438 327.106445312 604.76953125 273.926757812 604.76953125 c 0
 218.506835938 604.76953125 155.02734375 575.169921875 97.0283203125 476.549804688 c 1
 97.0283203125 476.549804688 89.609375 479.389648438 84.369140625 481.370117188 c 1
 87.1044921875 486.620117188 91.83203125 495.400390625 95.9609375 502.709960938 c 0
 150.307617188 599.610351562 217.724609375 633.509765625 278.825195312 633.509765625 c 0
 392.157226562 633.51953125 446.942382812 569.919921875 434 496.51953125 c 0xd0
167.995117188 54.01953125 m 0
 187.35546875 54.01953125 200.278320312 38.330078125 196.856445312 18.98046875 c 0
 193.442382812 -0.3798828125 174.985351562 -16.0703125 155.635742188 -16.0703125 c 0
 136.275390625 -16.0703125 123.352539062 -0.3798828125 126.766601562 18.98046875 c 0xe0
 130.178710938 38.330078125 148.634765625 54.01953125 167.995117188 54.01953125 c 0
EndSplineSet
EndChar

StartChar: a
Encoding: 45 97 43
Width: 405
VWidth: 0
Flags: W
HStem: 0 21G<253.189 321.248> 211.26 19.9102<193.445 290.351>
LayerCount: 2
Fore
SplineSet
90.3642578125 369 m 1
 129.517578125 430.780273438 236.215820312 457.990234375 324.481445312 415.08984375 c 0
 387.168945312 384.620117188 376.955078125 336.33984375 376.955078125 336.33984375 c 1
 334.905273438 97.8603515625 l 1
 317.740234375 0 l 1
 253.189453125 0 l 1
 263.69140625 59.5595703125 l 1
 200.90625 -5.0703125 161.62890625 -15.830078125 110.678710938 -15.830078125 c 0
 18.5986328125 -15.830078125 -11.9912109375 58.1796875 34.12890625 129.870117188 c 0
 80.3564453125 201.650390625 182.241210938 231.169921875 293.78125 231.169921875 c 1
 293.78125 231.169921875 299.0625 261.120117188 308.015625 311.900390625 c 0
 313.67578125 344 312.811523438 379.080078125 281.94140625 398.299804688 c 0
 259.719726562 412.129882812 179.54296875 439.709960938 128.376953125 353.759765625 c 1
 90.3642578125 369 l 1
136.141601562 10.5 m 0
 272.60546875 25.7197265625 285.783203125 185.360351562 290.350585938 211.259765625 c 1
 265.220703125 211.259765625 215.356445312 214.129882812 150.440429688 188.969726562 c 0
 90.224609375 165.629882812 75.9013671875 97.099609375 77.7578125 58.7998046875 c 0
 79.37890625 24.5498046875 95.5126953125 5.9697265625 136.141601562 10.5 c 0
EndSplineSet
EndChar

StartChar: b
Encoding: 46 98 44
Width: 361
VWidth: 0
Flags: W
HStem: -16.0703 35.1006<118.112 203.658> 0 21G<0 67.9971> 397.05 36.71<196.307 269.4> 599.68 20G<105.74 173.737>
LayerCount: 2
Fore
SplineSet
230.1015625 397.049804688 m 0xb0
 196.03125 397.049804688 155.075195312 372.860351562 123.330078125 333.75 c 1
 81.0537109375 93.990234375 l 1
 96.021484375 53.76953125 121.395507812 19.0302734375 160.0859375 19.0302734375 c 0
 220.0859375 19.0302734375 267.922851562 107.4296875 284.594726562 201.98046875 c 0
 304.865234375 316.940429688 292.970703125 397.049804688 230.1015625 397.049804688 c 0xb0
263.353515625 433.759765625 m 0
 328.33203125 433.240234375 378.39453125 368.599609375 349.001953125 201.959960938 c 0
 329.6796875 92.3798828125 285.256835938 -16.0703125 178.436523438 -16.0703125 c 0xb0
 116.556640625 -16.0703125 87.6181640625 25.849609375 74.9775390625 59.58984375 c 1
 64.470703125 0 l 1
 0 0 l 1x70
 109.266601562 619.6796875 l 1
 173.737304688 619.6796875 l 1
 129.161132812 366.879882812 l 1
 165.729492188 402.940429688 215.384765625 434.099609375 263.353515625 433.759765625 c 0
EndSplineSet
EndChar

StartChar: c
Encoding: 47 99 45
Width: 432
VWidth: 0
Flags: W
HStem: -16.0703 19.2803<162.793 267.573> 417.08 18.8604<238.471 336.682>
LayerCount: 2
Fore
SplineSet
395.630859375 122.83984375 m 1
 374.708007812 47.849609375 304.016601562 -16.0703125 205.676757812 -16.0703125 c 0
 87.1767578125 -16.0703125 11.0244140625 85.2099609375 34.435546875 217.98046875 c 0
 68.30859375 410.080078125 229.418945312 435.940429688 290.30859375 435.940429688 c 0
 341.598632812 435.940429688 407.642578125 421.5 430.094726562 365.879882812 c 1
 391.616210938 345.809570312 l 1
 368.814453125 396.5 339.40234375 417.080078125 288.8828125 417.080078125 c 0
 172.462890625 417.080078125 115.37890625 293.48046875 102.064453125 217.969726562 c 0
 84.6630859375 119.280273438 104.846679688 3.2099609375 208.556640625 3.2099609375 c 0
 277.056640625 3.2099609375 315.173828125 33.48046875 340.306640625 65.1396484375 c 0
 349.73046875 76.900390625 365.029296875 102.360351562 373.658203125 122.830078125 c 1
 395.62890625 122.830078125 l 1
 395.630859375 122.83984375 l 1
EndSplineSet
EndChar

StartChar: d
Encoding: 48 100 46
Width: 362
VWidth: 0
Flags: W
HStem: -16.0703 35.1104<120.318 193.278> 0 21G<246.51 314.507> 397.06 36.7002<173.185 261.437> 599.68 20G<352.26 420.247>
LayerCount: 2
Fore
SplineSet
263.075195312 94 m 1xb0
 263.084960938 94 l 1
 305.359375 333.75 l 1
 287.38671875 372.870117188 254.97265625 397.059570312 220.90234375 397.059570312 c 0
 158.032226562 397.059570312 117.88671875 316.950195312 97.6162109375 201.990234375 c 0
 80.9423828125 107.4296875 97.607421875 19.0400390625 157.607421875 19.0400390625 c 0
 196.297851562 19.0400390625 233.923828125 53.7802734375 263.075195312 94 c 1xb0
355.786132812 619.6796875 m 1
 420.247070312 619.6796875 l 1
 310.98046875 0 l 1
 246.509765625 0 l 1x70
 257.016601562 59.58984375 l 1
 232.477539062 25.849609375 188.755859375 -16.0703125 126.786132812 -16.0703125 c 0
 20.0556640625 -16.0703125 13.8046875 92.4697265625 33.111328125 201.959960938 c 0
 62.494140625 368.599609375 135.44140625 433.240234375 200.603515625 433.759765625 c 0
 248.709960938 434.190429688 287.268554688 402.940429688 311.209960938 366.879882812 c 1
 355.786132812 619.6796875 l 1
EndSplineSet
EndChar

StartChar: e
Encoding: 49 101 47
Width: 421
VWidth: 0
Flags: W
HStem: -16.0703 20.0703<160.671 246.539> 245.84 19.9902<120.812 347.752> 413.24 22.71<213.435 307.221>
LayerCount: 2
Fore
SplineSet
261.293945312 413.240234375 m 0
 178.944335938 413.240234375 134.435546875 326.190429688 120.811523438 265.830078125 c 1
 346.6015625 265.830078125 l 1
 355.705078125 331.919921875 346.00390625 413.240234375 261.293945312 413.240234375 c 0
367.6640625 155.879882812 m 0
 392.133789062 155.879882812 l 1
 390.69921875 150.690429688 389.020507812 145.58984375 387.291015625 140.66015625 c 0
 355.5625 51.91015625 287.615234375 -16.0703125 198.6953125 -16.0703125 c 0
 142.3046875 -16.0703125 96.568359375 -6.75 64.3115234375 56.5595703125 c 0
 26.3525390625 131.200195312 49.72265625 253.530273438 86 314.080078125 c 0
 143.227539062 409.5703125 217.159179688 435.950195312 266.37890625 435.950195312 c 0
 336.088867188 435.950195312 436.083984375 408.530273438 407.397460938 245.83984375 c 1
 117.297851562 245.83984375 l 1
 96.5244140625 144.650390625 96.18359375 4 203.09375 4 c 0
 271.423828125 4 332.865234375 71.3798828125 361.688476562 140.139648438 c 0
 362.298828125 141.610351562 365.356445312 149.650390625 367.6640625 155.879882812 c 0
EndSplineSet
EndChar

StartChar: f
Encoding: 50 102 48
Width: 275
VWidth: 0
Flags: W
HStem: 0 21G<68.9697 136.906> 413.54 19.8701<76.4219 141.798 209.802 289.107> 613.4 20.1191<262.926 331.82>
LayerCount: 2
Fore
SplineSet
367.227539062 564.509765625 m 1
 341.25390625 602.940429688 324.478515625 613.400390625 293.568359375 613.400390625 c 0
 247.388671875 613.400390625 232.924804688 564.549804688 223.16015625 509.169921875 c 2
 209.801757812 433.41015625 l 1
 292.611328125 433.41015625 l 1
 289.107421875 413.540039062 l 1
 206.297851562 413.540039062 l 1
 133.379882812 0 l 1
 68.9697265625 0 l 1
 141.797851562 413.540039062 l 1
 72.91796875 413.540039062 l 1
 76.421875 433.41015625 l 1
 145.301757812 433.41015625 l 1
 158.66015625 509.169921875 l 2
 172.928710938 590.08984375 214.216796875 633.51953125 294.446289062 633.51953125 c 0
 361.99609375 633.51953125 394.625 607.709960938 404.7109375 585.169921875 c 1
 367.227539062 564.509765625 l 1
EndSplineSet
EndChar

StartChar: g
Encoding: 51 103 49
Width: 425
VWidth: 0
Flags: W
HStem: -200 62.5596<42.4432 252.115> 17.8896 61.4307<62.5052 246.105 246.19 340.278> 136.81 19.1309<168.386 248.249> 417 18.9502<207.649 278.232> 423.55 41.4199<379.405 434.614>
LayerCount: 2
Fore
SplineSet
336.267578125 408.370117188 m 1xf0
 373.602539062 446.33984375 409.833007812 467.26953125 443.13671875 464.969726562 c 1
 434.614257812 423.549804688 l 1xe8
 403.920898438 422 376.301757812 416.280273438 349.745117188 396.900390625 c 1
 349.745117188 396.900390625 392.629882812 363.580078125 379.5 289.120117188 c 0
 357.97265625 167.030273438 282.34375 136.809570312 203.54296875 136.809570312 c 0
 162.712890625 136.809570312 125.064453125 144.919921875 105.650390625 157.940429688 c 1
 51.6953125 109.709960938 37.95703125 79.3203125 112.106445312 79.3203125 c 2
 250.306640625 79.3203125 l 2
 339.616210938 79.3203125 390.90625 38.259765625 377.116210938 -39.9501953125 c 0
 358.809570312 -143.76953125 239.694335938 -200 151.584960938 -200 c 0
 39.9345703125 -200 -26.4775390625 -150.16015625 -15.3154296875 -86.8603515625 c 0
 -8.6591796875 -49.1103515625 16.37109375 -15.080078125 64.2568359375 18.98046875 c 1
 -32.626953125 32.400390625 34.427734375 118.290039062 90.369140625 167.299804688 c 1
 90.369140625 167.299804688 60.4287109375 206.879882812 73.865234375 283.080078125 c 0
 91.4658203125 382.900390625 168.220703125 435.950195312 244.55078125 435.950195312 c 0
 271.120117188 435.950195312 308.141601562 427.280273438 336.267578125 408.370117188 c 1xf0
244.499023438 417 m 0xf0
 189.46875 417 150.015625 364.1796875 137.859375 295.240234375 c 0
 120.810546875 198.549804688 152.026367188 155.940429688 206.186523438 155.940429688 c 0
 282.706054688 155.940429688 307.014648438 228.41015625 316.655273438 283.080078125 c 0
 329.607421875 356.540039062 299.008789062 417 244.499023438 417 c 0xf0
164.505859375 -137.440429688 m 0
 248.67578125 -137.440429688 345.37890625 -109.51953125 356.306640625 -47.599609375 c 0
 365.752929688 5.9697265625 307.640625 17.41015625 246.190429688 17.41015625 c 2
 246.190429688 17.41015625 128.96484375 17.8896484375 80.484375 17.8896484375 c 1
 34.935546875 -15.849609375 10.208984375 -49.1201171875 6.8271484375 -68.2998046875 c 0
 -1.32421875 -114.530273438 48.2958984375 -137.440429688 164.505859375 -137.440429688 c 0
EndSplineSet
EndChar

StartChar: h
Encoding: 52 104 50
Width: 435
VWidth: 0
Flags: W
HStem: 0 21G<0 67.9865 301.14 369.211> 411.66 22.1201<215.247 319.869> 599.68 20G<105.74 173.727>
LayerCount: 2
Fore
SplineSet
365.689453125 0 m 1
 301.139648438 0 l 1
 352.147460938 289.790039062 l 2
 364.288085938 358.639648438 350.31640625 411.66015625 270.016601562 411.66015625 c 0
 201.766601562 411.66015625 128.079101562 360.799804688 117.076171875 298.400390625 c 2
 64.4599609375 0 l 1
 0 0 l 1
 109.266601562 619.6796875 l 1
 173.7265625 619.6796875 l 1
 130.688476562 375.599609375 l 1
 171.897460938 423.799804688 250.336914062 433.780273438 278.307617188 433.780273438 c 0
 349.13671875 433.780273438 435.706054688 397.540039062 418.118164062 297.790039062 c 2
 365.689453125 0 l 1
EndSplineSet
EndChar

StartChar: i
Encoding: 53 105 51
Width: 155
VWidth: 0
Flags: W
HStem: 0 21G<0 69.9074> 413.56 20G<72.9217 142.829> 551.36 82.1592<104.944 170.283>
VStem: 0 178.693
LayerCount: 2
Fore
SplineSet
0 0 m 1
 76.4482421875 433.559570312 l 1
 142.829101562 433.559570312 l 1
 66.380859375 0 l 1
 0 0 l 1
96.533203125 592.440429688 m 0
 100.534179688 615.127929688 122.169921875 633.51953125 144.857421875 633.51953125 c 0
 167.544921875 633.51953125 182.694335938 615.127929688 178.693359375 592.440429688 c 0
 174.693359375 569.751953125 153.057617188 551.360351562 130.370117188 551.360351562 c 0
 107.682617188 551.360351562 92.533203125 569.751953125 96.533203125 592.440429688 c 0
EndSplineSet
EndChar

StartChar: j
Encoding: 54 106 52
Width: 258
VWidth: 0
Flags: W
HStem: -200 20.4502<-29.2674 36.4747> 553.55 79.9697<197.013 261.214>
VStem: -107.206 46.2432<-161.19 -127.81>
LayerCount: 2
Fore
SplineSet
222.076171875 553.549804688 m 0
 199.956054688 553.549804688 185.259765625 571.490234375 189.147460938 593.540039062 c 0
 193.03515625 615.58984375 214.047851562 633.51953125 236.177734375 633.51953125 c 0
 258.227539062 633.51953125 272.995117188 615.58984375 269.107421875 593.540039062 c 0
 265.219726562 571.490234375 244.125976562 553.549804688 222.076171875 553.549804688 c 0
0.6650390625 -200 m 0
 -65.685546875 -200 -109.852539062 -168.849609375 -107.206054688 -127.809570312 c 1
 -60.962890625 -117.129882812 l 1
 -57.056640625 -151.290039062 -31.779296875 -179.549804688 4.701171875 -179.549804688 c 0
 52.3212890625 -179.549804688 69.388671875 -127.26953125 77.8916015625 -79.0498046875 c 2
 169.38671875 438.879882812 l 1
 233.916992188 438.879882812 l 1
 142.591796875 -79.0498046875 l 2
 128.489257812 -159.030273438 93.03515625 -200 0.6650390625 -200 c 0
EndSplineSet
EndChar

StartChar: k
Encoding: 55 107 53
Width: 380
VWidth: 0
Flags: W
HStem: 0 21G<0.0898438 68.0763 247.156 346.59> 401.04 20G<318.287 367.9> 599.68 20G<105.743 173.816>
LayerCount: 2
Fore
SplineSet
171.750976562 259.919921875 m 1
 346.58984375 0 l 1
 260.959960938 0 l 1
 114.115234375 212.759765625 l 1
 100.045898438 201.309570312 l 1
 64.5498046875 0 l 1
 0.08984375 0 l 1
 109.266601562 619.6796875 l 1
 173.81640625 619.6796875 l 1
 105.083984375 229.879882812 l 1
 343.200195312 421.040039062 l 1
 367.900390625 421.040039062 l 1
 171.750976562 259.919921875 l 1
EndSplineSet
EndChar

StartChar: l
Encoding: 56 108 54
Width: 152
VWidth: 0
Flags: W
HStem: 0 21G<0 67.9875> 599.68 20G<105.74 173.728>
VStem: 0 173.728
LayerCount: 2
Fore
SplineSet
0 0 m 1
 109.266601562 619.6796875 l 1
 173.727539062 619.6796875 l 1
 64.4609375 0 l 1
 0 0 l 1
EndSplineSet
EndChar

StartChar: m
Encoding: 57 109 55
Width: 656
VWidth: 0
Flags: W
HStem: 0 21G<0 68.3156 278.529 346.926 525.739 594.056> 401.04 20G<70.7137 139.029> 411.38 24.5703<208.8 297.338 477.649 556.716>
LayerCount: 2
Fore
SplineSet
640.403320312 282.849609375 m 2xa0
 590.529296875 0 l 1
 525.739257812 0 l 1
 575.5234375 282.849609375 l 2
 591.4921875 373.41015625 566.186523438 411.379882812 520.686523438 411.379882812 c 0
 468.787109375 411.379882812 408.982421875 371.940429688 396.353515625 300.3203125 c 2
 343.399414062 0 l 1
 278.529296875 0 l 1
 330.233398438 293.23046875 l 2
 342.740234375 364.16015625 315.086914062 411.379882812 247.266601562 411.379882812 c 0xa0
 194.326171875 411.379882812 129.060546875 364.5 118.795898438 306.290039062 c 2
 64.7890625 0 l 1
 0 0 l 1
 74.240234375 421.040039062 l 1
 139.029296875 421.040039062 l 1xc0
 130.631835938 373.41015625 l 1
 176.962890625 414.9296875 224.009765625 435.950195312 267.4296875 435.950195312 c 0
 313.009765625 435.950195312 362.267578125 417.849609375 392.059570312 355.419921875 c 1
 433.0078125 409.5703125 487.049804688 435.950195312 532.549804688 435.950195312 c 0
 574.239257812 435.950195312 624.858398438 406.110351562 639.883789062 348.0703125 c 0
 643.6015625 333.879882812 643.940429688 302.91015625 640.403320312 282.849609375 c 2xa0
EndSplineSet
EndChar

StartChar: n
Encoding: 58 110 56
Width: 420
VWidth: 0
Flags: W
HStem: 0 21G<0 68.3166 278.53 346.927> 401.04 20G<70.7137 139.03> 413.63 22.3203<209.131 295.231>
LayerCount: 2
Fore
SplineSet
392.17578125 276.620117188 m 2xa0
 343.400390625 0 l 1
 278.530273438 0 l 1
 330.8125 296.509765625 l 2
 343.3359375 367.530273438 315.484375 413.629882812 247.665039062 413.629882812 c 0xa0
 194.724609375 413.629882812 129.641601562 367.790039062 119.391601562 309.66015625 c 2
 64.7900390625 0 l 1
 0 0 l 1
 74.240234375 421.040039062 l 1
 139.030273438 421.040039062 l 1xc0
 131.212890625 376.700195312 l 1
 177.54296875 418.219726562 224.010742188 435.950195312 267.430664062 435.950195312 c 0
 313.010742188 435.950195312 415.75390625 410.33984375 392.17578125 276.620117188 c 2xa0
EndSplineSet
EndChar

StartChar: o
Encoding: 59 111 57
Width: 421
VWidth: 0
Flags: W
HStem: -16.0703 19.96<156.695 227> 422.28 13.6699<227.95 293.106>
LayerCount: 2
Fore
SplineSet
264.919921875 435.950195312 m 0
 381.5703125 435.950195312 436.913085938 347.950195312 414.098632812 218.559570312 c 0
 396.916992188 121.120117188 328.916015625 -16.0703125 180.146484375 -16.0703125 c 0
 50.9560546875 -16.0703125 19.2001953125 108.889648438 38.5380859375 218.559570312 c 0
 55.1669921875 312.870117188 130.450195312 435.950195312 264.919921875 435.950195312 c 0
102.953125 216.76953125 m 0
 84.4169921875 111.650390625 110.456054688 3.8896484375 194.67578125 3.8896484375 c 0
 258.145507812 3.8896484375 330.837890625 110.459960938 349.583007812 216.76953125 c 0
 368.897460938 326.309570312 342.088867188 422.280273438 261.029296875 422.280273438 c 0
 177.079101562 422.280273438 119.9296875 313.049804688 102.953125 216.76953125 c 0
EndSplineSet
EndChar

StartChar: p
Encoding: 60 112 58
Width: 406
VWidth: 0
Flags: W
HStem: -200 21G<-35.2656 31.3215> -4.00977 32.1299<106.897 236.566> 400.04 35.9102<176.286 294.59> 401.04 20G<70.7137 137.301>
LayerCount: 2
Fore
SplineSet
324.560546875 201.219726562 m 0xe0
 340.729492188 292.919921875 336.498046875 400.040039062 242.348632812 400.040039062 c 0
 183.528320312 400.040039062 158.3046875 385.83984375 126.030273438 357.120117188 c 1
 76.36328125 75.330078125 l 1
 94.361328125 43.6201171875 125.778320312 28.1201171875 173.268554688 28.1201171875 c 0
 225.59765625 28.1201171875 298.490234375 53.3701171875 324.560546875 201.219726562 c 0xe0
249.540039062 435.950195312 m 0
 339.700195312 435.950195312 418.907226562 375.25 388.224609375 201.240234375 c 0
 364.502929688 66.7099609375 254.212890625 -4.009765625 169.012695312 -4.009765625 c 0
 117.663085938 -4.009765625 88.5263671875 12.23046875 70.7255859375 43.4697265625 c 1
 27.794921875 -200 l 1
 -35.265625 -200 l 1
 74.240234375 421.040039062 l 1
 137.30078125 421.040039062 l 1xd0
 131.142578125 386.110351562 l 1
 167.87890625 422.559570312 211.740234375 435.950195312 249.540039062 435.950195312 c 0
EndSplineSet
EndChar

StartChar: q
Encoding: 61 113 59
Width: 424
VWidth: 0
Flags: W
HStem: -200 21G<254.334 321.001> -4.00977 32.1299<131.122 256.68> 400.04 35.9102<193.19 324.474> 401.04 20G<360.404 426.98>
LayerCount: 2
Fore
SplineSet
251.458007812 400.040039062 m 0xe0
 157.307617188 400.040039062 115.298828125 292.919921875 99.1298828125 201.219726562 c 0
 73.0595703125 53.3701171875 137.047851562 28.1201171875 189.377929688 28.1201171875 c 0
 236.868164062 28.1201171875 273.749023438 43.6103515625 302.932617188 75.330078125 c 1
 352.639648438 357.120117188 l 1
 330.494140625 385.83984375 310.288085938 400.040039062 251.458007812 400.040039062 c 0xe0
363.9296875 421.040039062 m 1xd0
 426.98046875 421.040039062 l 1xd0
 317.474609375 -200 l 1
 254.333984375 -200 l 1
 297.264648438 43.4697265625 l 1
 268.518554688 12.240234375 233.663085938 -4.009765625 182.3125 -4.009765625 c 0
 97.11328125 -4.009765625 11.7626953125 66.7099609375 35.484375 201.240234375 c 0
 66.1669921875 375.25 166.790039062 435.950195312 256.950195312 435.950195312 c 0xe0
 294.75 435.950195312 333.888671875 422.559570312 357.771484375 386.110351562 c 1
 363.9296875 421.040039062 l 1xd0
EndSplineSet
EndChar

StartChar: r
Encoding: 62 114 60
Width: 279
VWidth: 0
Flags: W
HStem: 0 21G<0 68.4367> 396.11 33.5293<211.714 305.505>
VStem: 0 318.427
LayerCount: 2
Fore
SplineSet
318.426757812 429.639648438 m 1
 305.504882812 396.110351562 l 1
 214.416992188 413.190429688 173.401367188 367.73046875 112.6328125 270.650390625 c 1
 64.91015625 0 l 1
 0 0 l 1
 74.755859375 423.959960938 l 1
 139.666015625 423.959960938 l 1
 120.534179688 315.459960938 l 1
 170.326171875 404.509765625 254.4296875 454.3203125 318.426757812 429.639648438 c 1
EndSplineSet
EndChar

StartChar: s
Encoding: 63 115 61
Width: 334
VWidth: 0
Flags: W
HStem: -16.0703 19.8799<103.203 189.501> 415.97 19.9805<167.077 270.967>
VStem: 21.6211 15.0693<78.6504 140.365> 303.461 14.6895<324.533 381.927>
LayerCount: 2
Fore
SplineSet
298.374023438 101.8203125 m 0
 284.418945312 22.6796875 213.236328125 -16.0703125 144.036132812 -16.0703125 c 0
 80.2861328125 -16.0703125 40.330078125 19.740234375 21.62109375 66.7001953125 c 1
 20.1708984375 106.5703125 24.7548828125 140.389648438 24.7548828125 140.389648438 c 1
 24.7548828125 140.389648438 33.7119140625 141.169921875 38.3779296875 141.599609375 c 1
 37.8759765625 134.330078125 36.8154296875 121.450195312 36.6904296875 118.759765625 c 0
 34.353515625 66.259765625 79.7314453125 3.8095703125 146.251953125 3.8095703125 c 0
 181.801757812 3.8095703125 246.336914062 27.9404296875 258.629882812 97.66015625 c 0
 267.979492188 150.6796875 233.076171875 167.110351562 164.161132812 190.73046875 c 0
 78.7626953125 220.059570312 62.75390625 271 74.31640625 336.5703125 c 0
 83.8623046875 390.709960938 146.6796875 435.950195312 220.370117188 435.950195312 c 0
 273.8203125 435.950195312 292.446289062 424.360351562 318.150390625 398.41015625 c 1
 324.078125 373.669921875 314.880859375 324.459960938 314.880859375 324.459960938 c 1
 314.880859375 324.459960938 307.084960938 324.370117188 301.60546875 324.200195312 c 1
 302.321289062 331.209960938 303.506835938 343.830078125 303.4609375 346.51953125 c 0
 302.846679688 397.030273438 273.06640625 415.969726562 218.576171875 415.969726562 c 0
 171.606445312 415.969726562 126.453125 397.290039062 116.432617188 340.459960938 c 0
 108.701171875 296.610351562 127.852539062 274.73046875 193.244140625 253.190429688 c 0
 275.659179688 226.110351562 312.359375 181.139648438 298.374023438 101.8203125 c 0
EndSplineSet
EndChar

StartChar: t
Encoding: 64 116 62
Width: 327
VWidth: 0
Flags: W
HStem: -16.0703 26.8008<168.575 237.675> 415.95 19.9795<75.6608 147.264 217.076 313.894>
VStem: 73.3428 244.074
LayerCount: 2
Fore
SplineSet
295.607421875 78.2998046875 m 2
 286.8828125 28.8203125 254.396484375 -16.0703125 190.13671875 -16.0703125 c 0
 144.896484375 -16.0703125 118.938476562 -4.830078125 101.32421875 29.6796875 c 0
 83.2763671875 65.1396484375 94.8681640625 111.76953125 107.327148438 182.4296875 c 2
 148.592773438 415.950195312 l 1
 73.3427734375 415.950195312 l 1
 73.3427734375 415.950195312 74.4716796875 422.349609375 75.783203125 429.790039062 c 1
 98.7939453125 429.790039062 l 2
 145.84375 429.790039062 206.442382812 454.110351562 217.712890625 518.030273438 c 2
 221.75390625 540.950195312 l 1
 229.883789062 540.950195312 235.59375 540.950195312 235.59375 540.950195312 c 1
 217.076171875 435.9296875 l 1
 317.416992188 435.9296875 l 1
 313.893554688 415.950195312 l 1
 213.552734375 415.950195312 l 1
 163.590820312 132.599609375 l 2
 149.7265625 53.9697265625 159.662109375 10.73046875 193.221679688 10.73046875 c 0
 235.431640625 10.73046875 253.1171875 33.0498046875 265.127929688 62.3701171875 c 0
 265.721679688 63.75 268.491210938 70.669921875 271.483398438 78.2802734375 c 1
 295.603515625 78.2802734375 l 1
 295.607421875 78.2998046875 l 2
EndSplineSet
EndChar

StartChar: u
Encoding: 65 117 63
Width: 411
VWidth: 0
Flags: W
HStem: -16.0703 24.3604<125.723 203.017> 0 21G<277.311 345.327> 401.04 20G<70.7137 138.811 348.034 416.041>
LayerCount: 2
Fore
SplineSet
416.041015625 421.040039062 m 1xa0
 341.80078125 0 l 1
 277.310546875 0 l 1x60
 288.276367188 62.1904296875 l 1
 246.930664062 21.5498046875 207.06640625 -16.0703125 149.296875 -16.0703125 c 0
 103.926757812 -16.0703125 5.060546875 28.7001953125 28.529296875 161.799804688 c 2
 74.240234375 421.040039062 l 1
 138.810546875 421.040039062 l 1
 89.6083984375 142 l 2
 77.146484375 71.3203125 101.852539062 8.2900390625 169.352539062 8.2900390625 c 0
 222.041992188 8.2900390625 289.848632812 71.0498046875 300.05078125 128.91015625 c 2
 351.560546875 421.040039062 l 1
 416.041015625 421.040039062 l 1xa0
EndSplineSet
EndChar

StartChar: v
Encoding: 66 118 64
Width: 402
VWidth: 0
Flags: W
HStem: 401.04 20G<74.2402 148.969 391.714 421.66>
LayerCount: 2
Fore
SplineSet
401.169921875 421.040039062 m 1
 421.66015625 421.040039062 l 1
 215.895507812 -16.0703125 l 1
 167.435546875 -16.0703125 l 1
 74.240234375 421.040039062 l 1
 144.48046875 421.040039062 l 1
 227.104492188 52.8798828125 l 1
 401.169921875 421.040039062 l 1
EndSplineSet
EndChar

StartChar: w
Encoding: 67 119 65
Width: 605
VWidth: 0
Flags: W
HStem: 401.04 20G<74.2402 148.801 594.09 623.939>
LayerCount: 2
Fore
SplineSet
623.939453125 421.040039062 m 1
 418.265625 -16.0703125 l 1
 369.795898438 -16.0703125 l 1
 321.807617188 209.200195312 l 1
 215.805664062 -16.0703125 l 1
 167.345703125 -16.0703125 l 1
 74.240234375 421.040039062 l 1
 144.309570312 421.040039062 l 1
 226.999023438 52.7998046875 l 1
 364.333984375 343.48046875 l 1
 429.548828125 52.7998046875 l 1
 603.540039062 421.040039062 l 1
 623.939453125 421.040039062 l 1
EndSplineSet
EndChar

StartChar: x
Encoding: 68 120 66
Width: 452
VWidth: 0
Flags: W
HStem: 0 21G<0 43.1943 312.905 405.55> 401.04 20G<95.4102 186.162 394.575 437.7>
LayerCount: 2
Fore
SplineSet
269.731445312 247.440429688 m 1
 405.549804688 0 l 1
 323.780273438 0 l 1
 216.415039062 197.440429688 l 1
 23.669921875 0 l 1
 0 0 l 1
 205.575195312 212.58984375 l 1
 95.41015625 421.040039062 l 1
 175.280273438 421.040039062 l 1
 260.700195312 264.049804688 l 1
 414.120117188 421.040039062 l 1
 437.700195312 421.040039062 l 1
 269.731445312 247.440429688 l 1
EndSplineSet
EndChar

StartChar: y
Encoding: 69 121 67
Width: 402
VWidth: 0
Flags: W
HStem: -200 19.5498<-42.908 39.3339> 401.04 20G<74.2402 145.87 401.344 432.81>
LayerCount: 2
Fore
SplineSet
-2.0654296875 -200 m 0
 -33.7060546875 -200 -70.1708984375 -190.049804688 -86.9599609375 -160.040039062 c 1
 -69.2919921875 -148.200195312 l 1
 -50.5869140625 -170.740234375 -28.8388671875 -180.450195312 -3.748046875 -180.450195312 c 0
 21.341796875 -180.450195312 42.509765625 -172.41015625 65.41015625 -154.76953125 c 0
 93.5615234375 -133.099609375 142.03515625 -48.0595703125 190.274414062 35.8095703125 c 1
 74.240234375 421.040039062 l 1
 138.98046875 421.040039062 l 1
 238.978515625 130.76953125 l 1
 413.359375 421.030273438 l 1
 432.809570312 421.030273438 l 1
 413.668945312 388.080078125 379.395507812 328.969726562 370.640625 313.5703125 c 0
 322.206054688 229.040039062 198.384765625 12.7900390625 150.484375 -70.580078125 c 0
 136.37890625 -95.169921875 117.259765625 -129.9296875 95.3720703125 -154.25 c 0
 65.72265625 -187.190429688 25.984375 -200 -2.0654296875 -200 c 0
EndSplineSet
EndChar

StartChar: z
Encoding: 70 122 68
Width: 390
VWidth: 0
Flags: W
HStem: 0 19.8799<80.874 322.75> 401.16 19.8799<74.2402 297.345>
LayerCount: 2
Fore
SplineSet
326.241210938 19.7998046875 m 1
 322.75 0 l 1
 -9.2109375 0 l 1
 297.344726562 401.16015625 l 1
 70.7353515625 401.16015625 l 1
 74.240234375 421.040039062 l 1
 389.41015625 421.040039062 l 1
 80.8740234375 19.8798828125 l 1
 326.241210938 19.7998046875 l 1
EndSplineSet
EndChar

StartChar: exclam
Encoding: 1 33 69
Width: 154
VWidth: 0
Flags: W
HStem: -16.0703 70.0898<5.74594 65.5169> 613.52 20G<92.8921 176.327>
VStem: 0.586914 70.0898<-10.549 48.499> 111.707 64.6201<519.695 633.52>
LayerCount: 2
Fore
SplineSet
176.327148438 633.51953125 m 1
 138.665039062 419.9296875 67.755859375 144.650390625 67.755859375 144.650390625 c 1
 47.8759765625 144.650390625 l 1
 47.8759765625 144.650390625 74.0771484375 420.110351562 111.70703125 633.51953125 c 1
 176.327148438 633.51953125 l 1
41.8154296875 54.01953125 m 0
 61.166015625 54.01953125 74.0888671875 38.330078125 70.6767578125 18.98046875 c 0
 67.2626953125 -0.3798828125 48.806640625 -16.0703125 29.4560546875 -16.0703125 c 0
 10.0966796875 -16.0703125 -2.8271484375 -0.3798828125 0.5869140625 18.98046875 c 0
 3.9990234375 38.330078125 22.4560546875 54.01953125 41.8154296875 54.01953125 c 0
EndSplineSet
EndChar

StartChar: emdash
Encoding: 73 8212 71
Width: 690
VWidth: 0
Flags: W
HStem: 183.729 64.5703<47.5225 623.396>
LayerCount: 2
Fore
SplineSet
47.5224609375 248.298828125 m 1
 634.782226562 248.298828125 l 1
 623.396484375 183.728515625 l 1
 36.13671875 183.728515625 l 1
 47.5224609375 248.298828125 l 1
EndSplineSet
EndChar

StartChar: quotedblleft
Encoding: 71 8220 72
Width: 329
VWidth: 0
Flags: W
HStem: 467.74 108.1<132.122 183.204 287.462 338.551> 613.52 20G<171.689 190.608 327.029 345.948>
VStem: 92.0059 108.1<484.503 569.923> 247.346 108.1<484.503 569.923>
LayerCount: 2
Fore
SplineSet
155.5859375 575.83984375 m 0
 185.416015625 575.83984375 205.35546875 551.620117188 200.10546875 521.790039062 c 0
 194.84375 491.950195312 166.35546875 467.740234375 136.525390625 467.740234375 c 0
 106.685546875 467.740234375 86.744140625 491.950195312 92.005859375 521.790039062 c 0
 95.5283203125 541.76953125 97.818359375 552.3203125 107.940429688 571.950195312 c 0
 122.510742188 600.139648438 153.58203125 615.009765625 189.796875 633.51953125 c 1
 191.418945312 628.940429688 194.380859375 620.73046875 196.299804688 615.450195312 c 1
 189.3515625 612.33984375 178.637695312 607.5 176.754882812 606.629882812 c 0
 163.530273438 600.309570312 143.362304688 586.48046875 131.766601562 570.740234375 c 1
 139.340820312 573.940429688 147.366210938 575.83984375 155.5859375 575.83984375 c 0
310.92578125 575.83984375 m 0
 340.765625 575.83984375 360.705078125 551.620117188 355.4453125 521.790039062 c 0
 350.18359375 491.950195312 321.705078125 467.740234375 291.865234375 467.740234375 c 0
 262.025390625 467.740234375 242.083984375 491.950195312 247.345703125 521.790039062 c 0
 250.868164062 541.76953125 253.158203125 552.3203125 263.280273438 571.950195312 c 0
 277.850585938 600.139648438 308.921875 615.009765625 345.13671875 633.51953125 c 1
 346.758789062 628.940429688 349.720703125 620.73046875 351.640625 615.450195312 c 1
 344.69140625 612.33984375 333.977539062 607.5 332.094726562 606.629882812 c 0
 318.870117188 600.309570312 298.702148438 586.48046875 287.106445312 570.740234375 c 1
 294.680664062 573.940429688 302.706054688 575.83984375 310.92578125 575.83984375 c 0
EndSplineSet
EndChar

StartChar: quotedblright
Encoding: 72 8221 73
Width: 308
VWidth: 0
Flags: W
HStem: 525.42 108.1<119.07 170.159 274.417 325.499>
VStem: 102.176 108.1<531.337 616.757> 257.516 108.1<531.337 616.757>
LayerCount: 2
Fore
SplineSet
302.03515625 525.419921875 m 0
 272.205078125 525.419921875 252.265625 549.639648438 257.515625 579.469726562 c 0
 262.77734375 609.309570312 291.266601562 633.51953125 321.096679688 633.51953125 c 0
 350.936523438 633.51953125 370.876953125 609.309570312 365.615234375 579.469726562 c 0
 362.092773438 559.490234375 359.802734375 548.940429688 349.681640625 529.309570312 c 0
 335.111328125 501.120117188 304.0390625 486.25 267.825195312 467.740234375 c 1
 266.203125 472.3203125 263.240234375 480.530273438 261.321289062 485.809570312 c 1
 268.26953125 488.919921875 278.983398438 493.759765625 280.866210938 494.629882812 c 0
 294.090820312 500.950195312 314.258789062 514.780273438 325.854492188 530.51953125 c 1
 318.280273438 527.3203125 310.254882812 525.419921875 302.03515625 525.419921875 c 0
146.6953125 525.419921875 m 0
 116.85546875 525.419921875 96.916015625 549.639648438 102.17578125 579.469726562 c 0
 107.4375 609.309570312 135.916992188 633.51953125 165.756835938 633.51953125 c 0
 195.596679688 633.51953125 215.537109375 609.309570312 210.275390625 579.469726562 c 0
 206.752929688 559.490234375 204.462890625 548.940429688 194.341796875 529.309570312 c 0
 179.771484375 501.120117188 148.69921875 486.25 112.485351562 467.740234375 c 1
 110.86328125 472.3203125 107.900390625 480.530273438 105.98046875 485.809570312 c 1
 112.9296875 488.919921875 123.643554688 493.759765625 125.526367188 494.629882812 c 0
 138.750976562 500.950195312 158.918945312 514.780273438 170.514648438 530.51953125 c 1
 162.940429688 527.3203125 154.915039062 525.419921875 146.6953125 525.419921875 c 0
EndSplineSet
EndChar

StartChar: quoteleft
Encoding: 74 8216 74
Width: 150
VWidth: 0
Flags: W
HStem: 467.74 108.1<132.122 183.207> 613.52 20G<171.689 190.608>
VStem: 92.0059 108.1<484.503 569.923>
LayerCount: 2
Fore
SplineSet
155.5859375 575.83984375 m 4
 185.416015625 575.83984375 205.365234375 551.620117188 200.10546875 521.790039062 c 4
 194.84375 491.950195312 166.365234375 467.740234375 136.525390625 467.740234375 c 4
 106.685546875 467.740234375 86.744140625 491.950195312 92.005859375 521.790039062 c 4
 95.5283203125 541.76953125 97.818359375 552.3203125 107.940429688 571.950195312 c 4
 122.510742188 600.139648438 153.58203125 615.009765625 189.796875 633.51953125 c 5
 191.418945312 628.940429688 194.380859375 620.73046875 196.30078125 615.450195312 c 5
 189.3515625 612.33984375 178.637695312 607.5 176.754882812 606.629882812 c 4
 163.530273438 600.309570312 143.362304688 586.48046875 131.766601562 570.740234375 c 5
 139.340820312 573.940429688 147.366210938 575.83984375 155.5859375 575.83984375 c 4
EndSplineSet
EndChar

StartChar: quoteright
Encoding: 75 8217 75
Width: 143
VWidth: 0
Flags: W
HStem: 525.42 108.1<119.075 170.159>
VStem: 102.176 108.1<531.337 616.757>
LayerCount: 2
Fore
SplineSet
146.6953125 525.419921875 m 0
 116.865234375 525.419921875 96.916015625 549.639648438 102.17578125 579.469726562 c 0
 107.4375 609.309570312 135.926757812 633.51953125 165.756835938 633.51953125 c 0
 195.596679688 633.51953125 215.537109375 609.309570312 210.275390625 579.469726562 c 0
 206.752929688 559.490234375 204.462890625 548.940429688 194.341796875 529.309570312 c 0
 179.771484375 501.120117188 148.69921875 486.25 112.485351562 467.740234375 c 1
 110.86328125 472.3203125 107.900390625 480.530273438 105.98046875 485.809570312 c 1
 112.9296875 488.919921875 123.643554688 493.759765625 125.526367188 494.629882812 c 0
 138.750976562 500.950195312 158.918945312 514.780273438 170.514648438 530.51953125 c 1
 162.940429688 527.3203125 154.915039062 525.419921875 146.6953125 525.419921875 c 0
EndSplineSet
EndChar

StartChar: endash
Encoding: 76 8211 76
Width: 441
VWidth: 0
Flags: W
HStem: 183.729 64.5703<43.7822 373.887>
LayerCount: 2
Fore
SplineSet
43.7822265625 248.298828125 m 1
 385.272460938 248.298828125 l 1
 373.88671875 183.728515625 l 1
 32.396484375 183.728515625 l 1
 43.7822265625 248.298828125 l 1
EndSplineSet
EndChar

StartChar: f_f
Encoding: 77 64256 77
Width: 533
VWidth: 0
Flags: W
HStem: 0 21G<68.9697 136.906 269.64 337.576> 413.54 19.8701<76.4219 141.798 209.791 342.478 410.472 489.777> 613.4 20.1191<262.926 331.233 463.511 532.486>
LayerCount: 2
Fore
SplineSet
495.116210938 633.51953125 m 0
 562.65625 633.51953125 595.293945312 607.700195312 605.380859375 585.169921875 c 1
 567.897460938 564.509765625 l 1
 541.9140625 602.940429688 525.1484375 613.400390625 494.239257812 613.400390625 c 0
 448.05859375 613.400390625 433.594726562 564.549804688 423.830078125 509.169921875 c 2
 410.471679688 433.41015625 l 1
 493.28125 433.41015625 l 1
 489.77734375 413.540039062 l 1
 406.967773438 413.540039062 l 1
 334.049804688 0 l 1
 269.639648438 0 l 1
 342.477539062 413.540039062 l 1
 289.1171875 413.540039062 l 1
 273.587890625 413.540039062 l 1
 206.297851562 413.540039062 l 1
 133.379882812 0 l 1
 68.9697265625 0 l 1
 141.797851562 413.540039062 l 1
 72.91796875 413.540039062 l 1
 76.421875 433.41015625 l 1
 145.311523438 433.41015625 l 1
 158.669921875 509.169921875 l 2
 172.938476562 590.08984375 214.2265625 633.51953125 294.45703125 633.51953125 c 0
 347.556640625 633.51953125 383.051757812 618.009765625 402.115234375 601.299804688 c 1
 424.275390625 622.509765625 454.766601562 633.51953125 495.116210938 633.51953125 c 0
359.330078125 509.169921875 m 2
 363.10546875 530.580078125 368.83203125 549.280273438 376.602539062 565.330078125 c 1
 346.661132812 598.16015625 323.798828125 613.400390625 293.55859375 613.400390625 c 0
 247.37890625 613.400390625 232.9140625 564.549804688 223.149414062 509.169921875 c 2
 209.791015625 433.41015625 l 1
 277.081054688 433.41015625 l 1
 292.611328125 433.41015625 l 1
 345.971679688 433.41015625 l 1
 359.330078125 509.169921875 l 2
EndSplineSet
Ligature2: "'liga' Standard Ligatures in Latin lookup 0-1" f f
EndChar

StartChar: f_i
Encoding: 78 64257 78
Width: 427
VWidth: 0
Flags: W
HStem: 0 21G<68.9697 136.906 272.897 333.779> 413.54 19.8799<76.4238 141.8 209.794 342.288> 613.41 20.1201<269.457 340.458>
LayerCount: 2
Fore
SplineSet
333.779296875 0 m 1
 269.370117188 0 l 1
 342.288085938 413.540039062 l 1
 206.297851562 413.540039062 l 1
 133.379882812 0 l 1
 68.9697265625 0 l 1
 141.799804688 413.549804688 l 1
 72.919921875 413.549804688 l 1
 76.423828125 433.419921875 l 1
 145.303710938 433.419921875 l 1
 158.662109375 509.1796875 l 2
 172.930664062 590.099609375 221.587890625 633.530273438 301.817382812 633.530273438 c 0
 369.357421875 633.530273438 406.174804688 607.709960938 416.262695312 585.1796875 c 1
 378.779296875 564.51953125 l 1
 352.805664062 602.950195312 331.850585938 613.41015625 300.940429688 613.41015625 c 0
 254.760742188 613.41015625 232.916992188 564.559570312 223.15234375 509.1796875 c 2
 209.793945312 433.419921875 l 1
 410.193359375 433.419921875 l 1
 333.76953125 0 l 1
 333.779296875 0 l 1
EndSplineSet
EndChar

StartChar: f_l
Encoding: 79 64258 79
Width: 439
VWidth: 0
Flags: W
HStem: 0 21G<68.9697 136.936 269.359 337.206> 413.55 19.8604<76.4238 141.8 209.831 289.14> 613.4 20.1299<267.741 342.103>
LayerCount: 2
Fore
SplineSet
223.189453125 509.169921875 m 2
 209.831054688 433.41015625 l 1
 292.611328125 433.41015625 l 1
 292.641601562 433.41015625 l 1
 289.139648438 413.549804688 l 1
 289.109375 413.549804688 l 1
 206.329101562 413.549804688 l 1
 133.409179688 0 l 1
 133.379882812 0 l 1
 69 0 l 1
 68.9697265625 0 l 1
 141.799804688 413.549804688 l 1
 72.919921875 413.549804688 l 1
 76.423828125 433.419921875 l 1
 76.453125 433.419921875 l 1
 145.303710938 433.419921875 l 1
 158.662109375 509.1796875 l 2
 167.467773438 559.120117188 188.81640625 594.73046875 222.701171875 614.719726562 c 0
 243.708007812 627.120117188 269.517578125 633.530273438 300.227539062 633.530273438 c 2
 300.227539062 633.530273438 300.237304688 633.530273438 300.237304688 633.530273438 c 1
 300.237304688 633.530273438 300.237304688 633.530273438 300.248046875 633.530273438 c 0
 359.857421875 633.530273438 404.056640625 618.66015625 435.213867188 575.830078125 c 1
 333.6796875 0 l 1
 269.359375 0 l 1
 370.799804688 575.299804688 l 1
 349.1484375 609.940429688 322.71875 613.400390625 299.358398438 613.400390625 c 0
 267.119140625 613.400390625 237.244140625 588.879882812 223.189453125 509.169921875 c 2
EndSplineSet
EndChar

StartChar: f_f_i
Encoding: 80 64259 80
Width: 664
VWidth: 0
Flags: W
HStem: 0 21G<68.9902 136.927 273.57 341.507 473.97 541.906> 413.54 19.8701<76.4219 141.798 209.822 346.408 414.402 546.888> 613.4 20.1191<262.937 332.699 473.402 545.057>
LayerCount: 2
Fore
SplineSet
614.801757812 433.41015625 m 1
 538.379882812 0 l 1
 473.969726562 0 l 1
 546.887695312 413.540039062 l 1
 410.8984375 413.540039062 l 1
 337.98046875 0 l 1
 273.5703125 0 l 1
 346.408203125 413.540039062 l 1
 206.318359375 413.540039062 l 1
 133.400390625 0 l 1
 68.990234375 0 l 1
 141.797851562 413.540039062 l 1
 72.91796875 413.540039062 l 1
 76.421875 433.41015625 l 1
 145.301757812 433.41015625 l 1
 158.66015625 509.169921875 l 2
 172.928710938 590.08984375 214.216796875 633.51953125 294.447265625 633.51953125 c 0
 346.537109375 633.51953125 384.61328125 618.240234375 407.462890625 599.299804688 c 1
 407.31640625 599.150390625 407.1953125 598.919921875 407.0546875 598.740234375 c 1
 431.330078125 621.5703125 464.52734375 633.51953125 506.416992188 633.51953125 c 0
 573.95703125 633.51953125 610.775390625 607.709960938 620.862304688 585.169921875 c 1
 583.377929688 564.509765625 l 1
 557.404296875 602.940429688 536.44921875 613.400390625 505.5390625 613.400390625 c 0
 459.359375 613.400390625 437.525390625 564.549804688 427.760742188 509.169921875 c 2
 414.40234375 433.41015625 l 1
 614.801757812 433.41015625 l 1
209.822265625 433.41015625 m 1
 349.912109375 433.41015625 l 1
 363.270507812 509.169921875 l 2
 366.938476562 529.969726562 372.919921875 548.240234375 381.075195312 563.98046875 c 1
 381.036132812 563.9296875 380.991210938 563.900390625 380.952148438 563.849609375 c 1
 349.477539062 599.209960938 322.829101562 613.400390625 293.58984375 613.400390625 c 0
 247.409179688 613.400390625 232.9453125 564.549804688 223.180664062 509.169921875 c 2
 209.822265625 433.41015625 l 1
EndSplineSet
EndChar

StartChar: f_f_l
Encoding: 81 64260 81
Width: 679
VWidth: 0
Flags: W
HStem: 0 21G<68.9795 136.916 273.56 341.586 474.02 541.866> 413.55 19.8604<76.4219 141.8 209.812 346.39 414.472 546.938> 613.4 20.1191<262.932 332.655 473.007 548.294>
LayerCount: 2
Fore
SplineSet
407.245117188 599.4296875 m 1
 436.65625 626.200195312 467.596679688 633.51953125 509.327148438 633.51953125 c 0
 548.88671875 633.51953125 604.947265625 625.98046875 639.872070312 575.8203125 c 1
 538.33984375 0 l 1
 474.01953125 0 l 1
 546.9375 413.540039062 l 1
 410.977539062 413.540039062 l 1
 338.059570312 0 l 1
 338.030273438 0 l 1
 337.969726562 0 l 1
 273.650390625 0 l 1
 273.620117188 0 l 1
 273.559570312 0 l 1
 346.389648438 413.549804688 l 1
 206.309570312 413.549804688 l 1
 133.389648438 0 l 1
 68.9794921875 0 l 1
 141.799804688 413.549804688 l 1
 72.919921875 413.549804688 l 1
 76.421875 433.41015625 l 1
 145.301757812 433.41015625 l 1
 158.66015625 509.169921875 l 2
 172.928710938 590.08984375 214.216796875 633.51953125 294.447265625 633.51953125 c 0
 346.426757812 633.51953125 384.421875 618.290039062 407.245117188 599.4296875 c 1
349.891601562 433.41015625 m 1
 362.467773438 504.73046875 366.793945312 538.620117188 380.9765625 563.879882812 c 1
 349.466796875 599.209960938 322.819335938 613.400390625 293.579101562 613.400390625 c 0
 247.399414062 613.400390625 232.934570312 564.549804688 223.169921875 509.169921875 c 2
 209.811523438 433.41015625 l 1
 349.891601562 433.41015625 l 1
505.275390625 613.379882812 m 0
 464.28515625 613.379882812 439.275390625 574.080078125 427.830078125 509.169921875 c 2
 414.471679688 433.41015625 l 1
 550.431640625 433.41015625 l 1
 575.450195312 575.299804688 l 1
 553.604492188 610.200195312 528.4453125 613.379882812 505.275390625 613.379882812 c 0
EndSplineSet
EndChar

StartChar: parenleft
Encoding: 82 40 82
Width: 220
VWidth: 0
Flags: W
LayerCount: 2
Fore
SplineSet
95.8447265625 142.830078125 m 1
 93.876953125 79.33984375 98.9404296875 22.3095703125 110.459960938 -22.2197265625 c 1
 81.4326171875 -28.1904296875 l 1
 81.4326171875 -28.1904296875 34.4716796875 147.450195312 80.56640625 347.110351562 c 0
 126.661132812 546.76953125 253.640625 722.23046875 253.640625 722.23046875 c 1
 280.989257812 716.379882812 l 1
 230.541015625 644.5703125 155.087890625 485.809570312 123.068359375 347.120117188 c 0
 106.74609375 276.419921875 97.837890625 206.33984375 95.857421875 142.83984375 c 1
 95.8447265625 142.830078125 l 1
EndSplineSet
EndChar

StartChar: parenright
Encoding: 83 41 83
Width: 223
VWidth: 0
Flags: W
LayerCount: 2
Fore
SplineSet
198.747070312 347.110351562 m 1
 152.65234375 147.450195312 24.591796875 -28.1904296875 24.591796875 -28.1904296875 c 1
 -1.740234375 -22.2197265625 l 1
 62.5625 66.8896484375 123.538085938 205.650390625 156.196289062 347.110351562 c 0
 172.205078125 416.450195312 179.7109375 490.849609375 181.01953125 556.809570312 c 0
 182.341796875 622.830078125 177.418945312 680.469726562 168.779296875 716.379882812 c 1
 198.890625 722.23046875 l 1
 198.890625 722.23046875 244.837890625 546.709960938 198.756835938 347.110351562 c 1
 198.747070312 347.110351562 l 1
EndSplineSet
EndChar

StartChar: ampersand
Encoding: 84 38 84
Width: 531
VWidth: 0
Flags: W
HStem: 0.00976562 44.7002<83.5625 322.715> 314.58 34.9199<153.938 350.537 411.519 494.183>
VStem: 459.472 27.2607<50.4 93.3096>
LayerCount: 2
Fore
SplineSet
190.296875 596.040039062 m 1
 190.306640625 596.040039062 l 1
 298.853515625 693.830078125 459.938476562 699.919921875 486.486328125 595.559570312 c 0
 499.885742188 542.889648438 478.088867188 460.389648438 411.518554688 349.5 c 1
 502.258789062 349.5 l 1
 494.182617188 314.51953125 l 1
 389.90234375 314.51953125 l 1
 358.435546875 252.6796875 339.170898438 143.549804688 351.08203125 81.0498046875 c 0
 362.787109375 19.6103515625 391.61328125 4.2998046875 424.881835938 24.8701171875 c 0
 446.58984375 38.2900390625 456.73828125 73.41015625 459.471679688 93.3095703125 c 1
 486.732421875 93.3095703125 l 1
 477.645507812 41 449.916992188 -10.41015625 398.418945312 -15.3798828125 c 0
 374.333984375 -17.7001953125 358.155273438 -11.6298828125 341.692382812 0.009765625 c 1
 2.7216796875 0.009765625 l 1
 2.7216796875 0.009765625 61.6181640625 146.26953125 92.451171875 388.669921875 c 0
 103.26953125 473.73046875 137.543945312 548.509765625 190.296875 596.040039062 c 1
83.5625 44.7099609375 m 1
 83.552734375 44.7099609375 l 2
 136.892578125 44.7099609375 209.814453125 44.98046875 322.71484375 44.98046875 c 1
 305.16796875 118.330078125 304.341796875 198.8203125 350.537109375 314.580078125 c 1
 149.88671875 314.580078125 l 1
 128.653320312 169.030273438 83.5625 44.7099609375 83.5625 44.7099609375 c 1
439.412109375 536.98046875 m 1
 439.421875 536.98046875 l 1
 451.415039062 653.990234375 351.567382812 651.790039062 278.1015625 601.349609375 c 0
 212.817382812 556.540039062 162.254882812 459.6796875 153.938476562 349.5 c 1
 367.918945312 349.5 l 1
 367.918945312 349.5 431.106445312 455.959960938 439.412109375 536.98046875 c 1
EndSplineSet
EndChar

StartChar: at
Encoding: 85 64 85
Width: 743
VWidth: 0
Flags: W
LayerCount: 2
Fore
SplineSet
490.4140625 -27.3603515625 m 1
 490.420898438 -27.3701171875 l 1
 487.287109375 -35.66015625 484.47265625 -44.2998046875 481.684570312 -51.8701171875 c 1
 438.765625 -75.4296875 332.129882812 -90.400390625 280.455078125 -88.5595703125 c 0
 94.990234375 -81.9501953125 1.8017578125 37.4296875 54.6611328125 234.120117188 c 0
 107.521484375 430.860351562 283.934570312 597.330078125 493.575195312 617 c 0
 683.958984375 634.860351562 792.46484375 497.75 738.912109375 301.08984375 c 0
 684.4140625 100.940429688 556.944335938 52.6904296875 513.184570312 41.5595703125 c 0
 444.491210938 24.08984375 410.672851562 70.3095703125 428.45703125 122.309570312 c 1
 428.45703125 122.309570312 348.3203125 38.900390625 268.331054688 44.8798828125 c 0
 152.166992188 53.6103515625 188.626953125 291.190429688 317.48828125 410.400390625 c 0
 402.4296875 488.98046875 531.614257812 480.509765625 597.564453125 446.290039062 c 1
 597.564453125 446.290039062 502.90234375 206.190429688 477.728515625 118.719726562 c 0
 454.767578125 38.9296875 575.260742188 89.3203125 636.157226562 163.110351562 c 0
 674.239257812 209.25 691.260742188 255.4296875 705.20703125 306.870117188 c 0
 752.086914062 479.740234375 650.768554688 595.309570312 483.506835938 579.540039062 c 0
 316.260742188 563.830078125 163.353515625 451.790039062 96.5517578125 238.110351562 c 0
 42.6650390625 65.73046875 125.393554688 -47.849609375 287.356445312 -57.3603515625 c 0
 355.838867188 -61.3798828125 443.865234375 -45.3701171875 490.4140625 -27.3603515625 c 1
320.212890625 94.1796875 m 0
 436.94921875 114.650390625 508.33984375 334.129882812 533.29296875 426.23046875 c 1
 533.29296875 426.23046875 442.09765625 471.860351562 350.576171875 391.940429688 c 0
 231.237304688 287.73046875 198.653320312 72.8701171875 320.212890625 94.1796875 c 0
EndSplineSet
EndChar

StartChar: copyright
Encoding: 86 169 86
Width: 690
VWidth: 0
Flags: W
HStem: 19.3301 26.9297<234.42 396.309> 598.52 30.0303<355.713 524.428>
VStem: 531.965 8.40527<413.7 417.23>
LayerCount: 2
Fore
SplineSet
449.112304688 628.549804688 m 0
 617.342773438 628.549804688 722.236328125 492.169921875 683.397460938 323.940429688 c 0
 644.55859375 155.709960938 476.693359375 19.330078125 308.462890625 19.330078125 c 0
 140.232421875 19.330078125 35.337890625 155.709960938 74.1767578125 323.940429688 c 0
 113.015625 492.169921875 280.881835938 628.549804688 449.112304688 628.549804688 c 0
313.120117188 46.259765625 m 0
 465.620117188 46.259765625 617.779296875 169.879882812 652.989257812 322.389648438 c 0
 688.19921875 474.900390625 593.119140625 598.51953125 440.619140625 598.51953125 c 0
 288.119140625 598.51953125 140.44921875 474.900390625 105.239257812 322.389648438 c 0
 70.029296875 169.879882812 160.620117188 46.259765625 313.120117188 46.259765625 c 0
485.645507812 227.900390625 m 1
 485.662109375 227.889648438 l 2
 487.076171875 230.98046875 490.092773438 233.259765625 493.2421875 233.259765625 c 2
 503.272460938 233.259765625 l 1
 492.86328125 202.25 472.901367188 175.51953125 442.340820312 154.639648438 c 0
 358.280273438 97.2001953125 266.309570312 127.040039062 233.163085938 172.3203125 c 0
 206.278320312 209.030273438 196.422851562 262.629882812 210.669921875 324.33984375 c 0
 224.916992188 386.049804688 257.950195312 438 302.173828125 473.620117188 c 0
 361.9296875 521.76953125 408.400390625 521.76953125 446.139648438 521.76953125 c 0
 498.25 521.76953125 547.71875 486.849609375 540.370117188 413.700195312 c 1
 540.370117188 413.700195312 537.413085938 413.3203125 536.395507812 413.16015625 c 0
 533.943359375 412.889648438 531.682617188 414.360351562 531.96484375 417.23046875 c 2
 531.96484375 417.23046875 532.046875 423.950195312 530.795898438 429.3203125 c 0
 526.772460938 446.889648438 521.282226562 481.150390625 487.470703125 495.08984375 c 0
 366.322265625 545.080078125 270.625976562 412.33984375 250.822265625 326.559570312 c 0
 232.16796875 245.759765625 264.875 182.940429688 300.98046875 158.490234375 c 0
 336.92578125 134.040039062 424.073242188 143.469726562 467.577148438 198.01953125 c 0
 474.385742188 206.58984375 482.80859375 221.719726562 485.645507812 227.900390625 c 1
EndSplineSet
EndChar

StartChar: less
Encoding: 87 60 87
Width: 315
VWidth: 0
Flags: W
VStem: 53.3984 269.469
LayerCount: 2
Fore
SplineSet
216.943359375 9.0703125 m 1
 165.713867188 9.0703125 l 1
 53.3984375 232.98046875 l 1
 285.0078125 452.540039062 l 1
 322.8671875 452.540039062 l 1
 98.513671875 239.240234375 l 1
 216.943359375 9.0703125 l 1
EndSplineSet
EndChar

StartChar: greater
Encoding: 88 62 88
Width: 315
VWidth: 0
Flags: W
VStem: -1.2959 269.469
LayerCount: 2
Fore
SplineSet
104.627929688 452.540039062 m 1
 155.857421875 452.540039062 l 1
 268.172851562 228.629882812 l 1
 36.5634765625 9.0703125 l 1
 -1.2958984375 9.0703125 l 1
 223.055664062 222.360351562 l 1
 104.627929688 452.540039062 l 1
EndSplineSet
EndChar
